<?xml version="1.0" encoding="UTF-8"?>
<svg id="Layer_1" data-name="Layer 1" xmlns="http://www.w3.org/2000/svg" viewBox="0 0 706.56 1496.53">
  <g>
    <path d="M187.2,843.42s0,0,0,0c0,0,0,0,0,0Z"/>
    <path d="M187.2,843.42s0,0,0,0c0,0,0,0,0,0Z"/>
    <path d="M187.56,844.91s0,0,0,0c0,0,0,0,0,0Z"/>
    <path d="M375.51,857.98s.03,0,.04,0c-.02,0-.03,0-.05,0,0,0,0,0,.01,0Z"/>
    <path d="M171.74,547.46c-.03.07-.06.15-.1.23.04-.07.07-.15.1-.23Z"/>
    <path d="M165.46,630.9c.01.06.02.12.03.18-.01-.06-.02-.12-.03-.18Z"/>
    <path d="M199.59,722.94s.04.06.05.09c-.02-.03-.04-.06-.05-.09Z"/>
    <path d="M214.61,743.14s0,0-.01-.01c0,0,0,0,.01.02,0,0,0,0,0,0Z"/>
    <path d="M214.64,743.19s.07.08.11.12c-.04-.04-.07-.08-.11-.12Z"/>
    <path d="M312.59,815.76s-.07-.04-.1-.06c.05.03.1.06.15.09-.02,0-.03-.02-.05-.03Z"/>
    <polygon points="214.61 743.15 214.61 743.15 214.61 743.15 214.61 743.15"/>
    <path d="M278.45,397.27s-.05.04-.08.06c.03-.02.05-.04.08-.06Z"/>
    <polygon points="276.57 398.83 276.57 398.83 276.57 398.83 276.57 398.83"/>
    <path d="M276.57,398.83s0,0,0,0c.03-.02.05-.04.08-.07h0s-.06.05-.09.07c0,0,0,0,0,0Z"/>
    <polygon points="276.57 398.83 276.57 398.83 276.57 398.84 276.57 398.83"/>
    <path d="M276.52,398.87s0,0,0,0c0,0,0,0,0,0,0,0,0,0,0,0,.01-.01.03-.02.04-.03-.01.01-.03.02-.04.04,0,0,0,0,0,0Z"/>
    <path d="M275.3,399.88s0,0,0,0c0,0,0,0,0,0,0,0,0,0,.01,0Z"/>
    <path d="M275.29,399.89s0,0,0,0c0,0,0,0,0,0Z"/>
    <path d="M275.28,399.9s0,0,0,0c0,0,0,0,0,0Z"/>
    <path d="M280.39,400.85s-.03.02-.04.04c.01-.01.03-.02.04-.04Z"/>
    <path d="M280.32,400.9s0,0,0,0c0,0,0,0,0,0,0,0,.01,0,.02-.01Z"/>
    <path d="M280.31,400.92s-.03.03-.05.04c0,0-.01.01-.02.02.02-.02.05-.04.07-.06Z"/>
    <polygon points="279.16 401.87 279.17 401.86 279.16 401.87 279.16 401.87 279.16 401.87"/>
    <polygon points="279.15 401.88 279.15 401.88 279.14 401.88 279.14 401.88 279.15 401.88"/>
    <polygon points="278.04 402.8 278.04 402.8 278.04 402.8 278.04 402.8"/>
    <polygon points="278.04 402.8 278.04 402.8 278.03 402.81 278.03 402.81 278.04 402.8"/>
    <polygon points="277.96 402.86 277.96 402.87 277.96 402.87 277.96 402.86"/>
    <path d="M277.94,402.88s0,0,0,0c0,0,0,0,0,0,0,0,0,0-.01.01,0,0,0,0,.01-.01,0,0,0,0,0,0h0s-.03.02-.04.04c0,0-.02.01-.02.02,0,0-.02.01-.03.02.03-.03.07-.06.1-.08Z"/>
    <path d="M276.76,403.86c-.05.05-.11.09-.16.13.05-.04.11-.09.16-.13Z"/>
    <path d="M163.74,557.29s0,0,0,0c0,0,0,0,0,0Z"/>
    <path d="M287.46,395.82s-.09.06-.14.09c.04-.03.09-.06.14-.09Z"/>
    <path d="M277.64,397.94s0,0,0,0c0,0,0,0,0,0Z"/>
    <path d="M275.32,399.87s0,0,0,0c0,0,0,0,0,0Z"/>
    <path d="M275.31,399.88s0,0,0,0c0,0,0,0,0,0Z"/>
    <path d="M279.16,401.87h0s0,0,0,0Z"/>
    <path d="M279.06,401.95s-.01.01-.02.02c0,0,.01-.01.02-.02Z"/>
    <path d="M278.06,402.78s-.01.01-.02.02c0,0,.01-.01.02-.02Z"/>
    <path d="M278.03,402.81s0,0,0,0c0,0,0,0,0,0Z"/>
    <path d="M278.02,402.82s0,0,0,0c0,0,0,0,0,0Z"/>
    <polygon points="278.01 402.82 278.01 402.82 278.01 402.83 278 402.83 278.01 402.82"/>
    <polygon points="278.01 402.83 278.01 402.83 278 402.83 278.01 402.83"/>
    <path d="M278,402.83s0,0-.01,0c0,0,0,0,.01,0Z"/>
    <path d="M277.99,402.84h0s0,0,0,0c0,0,0,0,.01-.01,0,0,0,0-.01.01,0,0,0,0,0,0,0,0,0,0,.01,0Z"/>
    <polygon points="277.98 402.85 277.98 402.85 277.98 402.85 277.98 402.85 277.98 402.85 277.97 402.86 277.98 402.85"/>
    <polygon points="277.94 402.89 277.94 402.88 277.94 402.89 277.94 402.89"/>
    <path d="M214.61,743.15s0,0,0,0c0,0,0,0,0,0Z"/>
    <path d="M214.61,743.15s0,0,0,0c0,0,0,0,0,0Z"/>
    <polygon points="277.97 402.86 277.97 402.86 277.97 402.86 277.97 402.86"/>
    <path d="M329.83,435.66s-.09.07-.14.11c.05-.04.09-.07.14-.11Z"/>
    <polygon points="445.95 470.29 445.94 470.3 445.94 470.3 445.95 470.29"/>
    <path d="M445.94,470.3s0,0,0,0c0,0,0,0,0,.01h0Z"/>
    <path d="M401.14,510.11s0,0,0,0c0,0-.01,0-.02.01,0,0,0,0,.01,0Z"/>
    <path d="M401.1,510.14s.02-.01.03-.02c-.01.01-.03.02-.04.03,0,0,0,0,.01,0Z"/>
    <path d="M409.5,445.27s.02-.01.03-.02c0,0-.02.01-.03.02h0Z"/>
    <path d="M407.14,448.55s-.02.02-.03.03c0,0,.02-.02.03-.03Z"/>
    <path d="M371.7,457.57s0,0,0,0c-.02,0-.03.02-.05.03.01,0,.03-.01.04-.02Z"/>
    <path d="M371.64,457.6s-.09.05-.14.08c.05-.03.09-.05.14-.08Z"/>
    <path d="M350.02,455.56c-2.05-1.83-4.18-3.55-6.41-5.15-2.58-1.79-5.25-3.43-8.02-4.92-3.35-1.74-6.79-3.26-10.1-4.51-.46-.17-.93-.34-1.39-.5,1.78-1.63,3.63-3.19,5.54-4.68,3.53-2.63,7.22-5.04,11.03-7.24-.05.03-.11.06-.17.09,2.55-1.46,5.11-2.93,7.68-4.35,2.53-1.4,5.08-2.73,7.67-4.03,1.89-.95,3.8-1.9,5.73-2.77,1.88-.84,3.78-1.68,5.74-2.32,1.59-.52,3.18-1.05,4.78-1.56,3.58,1.61,7.11,3.33,10.61,5.09,2.02,1.02,4.01,2.11,6,3.2,2.01,1.09,4,2.23,5.96,3.41,1.59.96,3.17,1.92,4.75,2.9-1.01.97-2.03,1.92-3.07,2.85h0c-1.71,1.47-3.46,2.89-5.2,4.34-.63.52-1.25,1.04-1.88,1.57-2.79,2.01-5.6,4-8.5,5.86-3.09,1.97-6.21,3.9-9.33,5.81.01,0,.02-.01.04-.02-3.01,1.84-6.05,3.63-9.11,5.38-1.37.69-2.72,1.43-4.07,2.17-.25.11-.5.23-.75.33-1.62.59-3.25,1.14-4.91,1.62-.85-.88-1.73-1.74-2.63-2.58Z"/>
    <path d="M410.96,458.64s-.06.05-.09.07c0,0-.02.01-.02.02.04-.03.08-.06.12-.09Z"/>
    <path d="M369.38,458.93s0,0,0,0c0,0-.02.01-.03.02,0,0,.02-.01.02-.02Z"/>
    <path d="M375.3,465.87s-.09.07-.13.1c.04-.03.09-.07.13-.1Z"/>
    <polygon points="442.48 468.31 442.49 468.31 442.48 468.32 442.48 468.31"/>
    <path d="M406.59,469.55s0,0,0,0c-.05.04-.11.09-.16.14.05-.04.1-.09.16-.13Z"/>
    <path d="M394.97,479.79s.02-.01.03-.02c-.05.03-.11.06-.16.1.04-.03.09-.05.13-.08Z"/>
    <path d="M394.77,479.9c-.06.04-.12.07-.18.11.06-.04.12-.07.18-.11Z"/>
    <path d="M401.5,481.53s0,0,.01,0c0,0,0,0-.01.01,0,0,0,0,0,0Z"/>
    <polygon points="401.48 481.54 401.48 481.54 401.48 481.54 401.47 481.55 401.48 481.54"/>
    <path d="M277.64,397.94s0,0,0,0c0,0,0,0,0,0Z"/>
    <path d="M275.32,399.86s0,0,0,0c0,0,0,0,0,0Z"/>
    <path d="M187.68,845.38s0,0,0,.01h0c.02.12.04.25.05.37,0,.04,0,.07,0,.11-.04,2.54-.13,5.09-.22,7.62-.1,2.79-.17,5.58-.27,8.37-.18,5.4-.43,10.8-.7,16.2-.55,11.12-1.25,22.24-1.93,33.36-1.36,22-2.63,43.99-3.98,65.98-1.44,23.65-2.98,47.3-4.55,70.95-.82,12.17-1.64,24.35-2.48,36.52-.8,11.7-1.64,23.39-2.43,35.08-.8,11.67-1.61,23.34-2.38,35.01-.75,11.49-1.49,22.98-2.23,34.47-1.48,22.88-2.97,45.77-4.46,68.64-1.46,22.48-2.87,44.96-4.57,67.43-.81,10.74-1.63,21.47-2.49,32.21-.41,5.16-.78,10.33-1.15,15.49-.37,5.19-.75,10.37-1.12,15.55-.63,8.99-1.28,17.98-1.94,26.98-.17,2.43-.34,4.86-.52,7.28-.16,2.36-.3,4.72-.47,7.08-.05.77-.07,1.53-.1,2.29-.01.35-.16.66-.4.9,1.89,6.67,5.37,12.91,8.5,19.05,2.33,4.68,4.59,9.41,6.93,13.87,2.6,4.72,5.14,9.18,8.09,13.01-1.32-3-2.7-5.9-4.25-8.8-3.29-6.22-7.01-12.23-9.97-18.61-2.5-5.61-5.39-11.12-6.98-17.07-.19-.77.56-1.28,1.18-1.16.03-2.04.15-4.07.26-6.1.3-5.55.64-11.11.96-16.66.6-10.48,1.23-20.96,1.89-31.43.68-10.84,1.36-21.69,2.02-32.53.68-11,1.39-22,2.08-33,.7-11.22,1.41-22.43,2.13-33.65.36-5.68.75-11.37,1.11-17.05.35-5.42.7-10.84,1.06-16.26,1.48-21.87,2.93-43.74,4.46-65.6.73-10.51,1.5-21.02,2.21-31.52.75-11.02,1.5-22.05,2.23-33.07.75-11.23,1.46-22.46,2.22-33.69.74-11.12,1.5-22.23,2.25-33.34.72-10.7,1.45-21.41,2.11-32.12.69-11.13,1.39-22.26,2.02-33.39,1.22-21.31,2.45-42.62,3.97-63.91.37-5.17.74-10.34,1.11-15.51.33-4.64.6-9.27.86-13.92.28-5.1.57-10.2.85-15.29.25-4.43.52-8.86.83-13.28.16-2.19.33-4.37.5-6.55.19-2.44.34-4.89.52-7.34.12-1.71.26-3.44.4-5.16.07-.86.14-1.71.23-2.56.04-.39.07-.79.12-1.18.04-.26.09-.52.13-.78,0-.09.02-.18.04-.26-3.41-.34-6.72-.33-10.02-1.02-6.3-1.47-12.43-3.6-18.46-5.92l.13.06c-5.31-1.91-10.41-5.14-12.87-10.41-1.9-5.81-3.73-12.38-2.22-18.42-.43-.31-.86-.62-1.29-.94.03,1.21.02,2.43,0,3.66.32,9.41-1.4,18.33,8.11,23.77,7.55,4.41,15.98,7.06,24.48,8.95.39.09.77.18,1.16.27.05.05.11.07.17.11.07.03.14.05.2.09.08.04.16.09.24.13.11.05.22.1.33.14.14.05.28.1.42.14.15.05.29.08.44.12,0,0,0,0,0,0,.14.04.27.09.4.14.18.08.36.17.52.27.17.09.34.19.5.29.16.1.33.19.49.28.14.07.27.15.4.23.11.07.21.16.31.23.1.08.2.15.3.23.16.12.3.25.45.38.16.14.3.3.45.45t0,0c.18.2.34.4.5.61.04.06.08.12.12.19h0c.05.07.1.15.14.22,0,.02.02.03.02.04.08.13.15.26.23.39.01.02.02.03.02.05,0,.02.02.03.02.04h0s.03.07.04.11c.01.04.02.07.04.1h0s0,0,0,0c.07.25.13.5.17.75.02.13.04.26.08.38.04.12.07.23.11.34h0,0s.01.05.02.07c0,.02.01.03.02.05h0c.04.12.06.24.09.37ZM228.74,907.91c.23.21.34.53.3.85-.03.22-.05.43-.07.65-.03.29-.02.59-.05.87-.03.36-.06.73-.1,1.07,0,.02,0,.03,0,.05h0c-.07.71-.13,1.42-.19,2.02-.09.89-.13,1.79-.19,2.68-.06,1-.1,1.99-.16,2.98-.12,1.96-.24,3.91-.37,5.88-.18,2.7-.37,5.41-.55,8.11-.2,2.77-.37,5.54-.54,8.3-.2,3.06-.41,6.13-.66,9.2-.29,3.49-.55,6.98-.83,10.48-.27,3.51-.54,7.02-.81,10.52-.29,3.78-.55,7.57-.8,11.36-.7,10.23-1.41,20.46-2.14,30.7-.39,5.43-.78,10.86-1.18,16.29-.36,4.89-.75,9.77-1.1,14.66-.36,4.86-.7,9.72-1.05,14.59-.38,5.19-.78,10.38-1.18,15.56-.84,11.09-1.7,22.18-2.54,33.27-1.57,20.95-3.03,41.9-4.48,62.85-1.52,21.89-3.27,43.76-4.89,65.64-.79,10.59-1.58,21.18-2.34,31.78-.79,10.95-1.57,21.9-2.33,32.86-1.46,20.98-3,41.96-4.51,62.95-.71,9.87-1.39,19.74-2.1,29.62-.68,9.43-1.42,18.85-2.19,28.27-.38,4.69-.76,9.38-1.13,14.07-.4,5.14-.8,10.29-1.23,15.42-.89,10.75-1.7,21.51-2.54,32.25-.12,1.62-.25,3.25-.38,4.87-.03.38-.06.77-.1,1.15,1.36.51,2.81.92,4.36,1.23-.02-.49.01-.99.02-1.48.07-2.37.21-4.73.35-7.09.29-5.12.53-10.25.84-15.37.27-4.7.57-9.39.86-14.09.29-4.63.61-9.26.85-13.89.22-4.15.4-8.3.65-12.44.29-4.79.6-9.57.93-14.36.7-10.51,1.35-21.04,2.05-31.55,1.45-21.78,3.08-43.55,4.67-65.33.82-11.22,1.68-22.45,2.5-33.67.82-11.12,1.64-22.24,2.47-33.36,1.67-22.57,3.28-45.15,4.95-67.72,1.63-22.05,3.26-44.1,4.93-66.15.86-11.27,1.74-22.54,2.57-33.81.8-10.89,1.58-21.79,2.39-32.69.82-10.97,1.71-21.93,2.54-32.91.79-10.45,1.55-20.92,2.36-31.38.38-4.87.74-9.74,1.11-14.61.37-4.92.71-9.84,1.08-14.76.6-8.02,1.17-16.03,1.87-24.03.35-4.03.69-8.05,1-12.08.15-1.97.29-3.94.45-5.91.04-.54.09-1.08.13-1.62-.05-.35.01-.75.09-1.16.08-.95.17-1.91.29-2.85,0-.02,0-.04,0-.05.02-.38,0-.77.02-1.14.02-.42.05-.84.08-1.26,0-.09.02-.17.05-.25.05-1.48.07-2.96.1-4.44-.64,2.86-.88,5.77-1.23,8.67-.33,1.01.07,4.71-1.55,4.27-.23-.08-.42-.27-.48-.52-.36-2.58-.26-5.18-.48-7.73-.11,1.25-.24,2.48-.36,3.72ZM182.57,1493.58c-3.49-1.33-6.47-3.43-9.05-5.97-1.3-.46-2.39-.87-2.98-1.04-8.61-3.05-14.57-10.58-19.2-18.11-3.31-5.17-6.39-10.48-9.11-15.98-5.83-11.58-9.29-17.79-7.42-31.21.07-1.39,1.35-1.93,2.36-1.63.15-4.41.27-8.83.41-13.25.15-4.87.25-9.74.37-14.61.13-5.12.31-10.23.51-15.36.18-4.66.38-9.31.59-13.97.18-4.14.36-8.28.57-12.42.5-9.81,1.06-19.62,1.63-29.42.64-10.82,1.31-21.62,2.01-32.44.71-11.07,1.5-22.14,2.23-33.21.72-10.83,1.42-21.66,2.1-32.49.71-11.2,1.38-22.41,2.09-33.61.71-11.09,1.43-22.18,2.07-33.27.64-11.02,1.25-22.04,1.87-33.07.6-10.87,1.21-21.74,1.83-32.61.62-10.93,1.16-21.86,1.73-32.79.56-10.82,1.23-21.64,1.82-32.46.3-5.45.56-10.89.89-16.33.3-5.11.64-10.21.96-15.32.63-10.1,1.32-20.2,1.93-30.3.64-10.61,1.24-21.23,1.88-31.84.65-10.81,1.37-21.61,2.02-32.43.33-5.52.66-11.04,1.01-16.57.17-2.65.32-5.31.46-7.96.08-1.61.15-3.24.28-4.85.04-.5.09-.99.16-1.48.05-.34.12-.67.19-.95.05-.23.08-.46.09-.49.11-1.2.16-2.4.2-3.6.03-.57.05-1.14.07-1.72.02-.49,0-1.04.14-1.53-.05,0-.1,0-.14.01-5.11-.06-10.04-1.75-14.81-3.47-6.54-2.46-12.77-6.79-17.51-11.9-2.69-3.68-4.23-8.14-5.4-12.51-1.59-6.77-1.87-13.88-4.86-20.21-6.61-16.42-20.45-27.9-31.08-41.59-11.3-13.95-21.69-28.73-29.66-44.85-10.59-21.5-18.16-44.54-21.09-68.36-2.14-16.29-1.2-32.75-.25-49.09,2.12-16.09,6.1-31.96,11.59-47.23,3.5-10.35,8.14-20.26,12.59-30.23,4.15-9.98,10.19-18.98,16.05-28.02,2.81-4.66,6.72-8.48,10.33-12.51,3.14-3.6,6.49-6.98,9.84-10.37.68-.84,1.37-1.68,2.07-2.51,1.59-1.88,3.21-3.75,4.84-5.6,1.68-1.91,3.44-3.76,5.18-5.61,1.46-1.54,2.95-3.07,4.47-4.55,3.4-3.32,6.84-6.59,10.44-9.7,1.94-1.68,3.9-3.32,5.88-4.96,1.9-1.57,3.88-3.07,5.83-4.57,1.7-1.31,3.44-2.57,5.18-3.81,1.94-1.38,3.88-2.77,5.88-4.08,2.17-1.42,4.34-2.82,6.54-4.21,2-1.26,4.05-2.44,6.09-3.63,1.89-1.1,3.8-2.15,5.73-3.18,2.11-1.13,4.22-2.27,6.38-3.31,3.76-1.84,7.54-3.61,11.38-5.27-.02-1.23.89-2.43,2.21-2.51.19-.06.38-.14.38-.14,2-.78,3.99-1.58,5.99-2.34,2.84-1.08,5.7-2.11,8.58-3.08,6.07-2.05,12.22-3.84,18.14-5.3,8.27-2.05,16.62-3.75,25.07-4.87,6.34-.84,12.71-1.43,19.1-1.71-4.65,3.22-9.2,6.59-13.64,10.1-9.05,7.16-17.67,14.86-25.71,23.14.02-.02.04-.05.07-.07-7.71,7.95-14.92,16.36-21.55,25.23.02-.02.03-.04.05-.07-6.77,9.04-12.86,18.57-18.3,28.46-5.79,10.51-10.72,21.49-14.82,32.76-3.39,9.33-6.14,18.88-8.3,28.56-.37.96-.71,1.93-1.02,2.92-1.24,3.96-2.38,7.99-3.23,12.05h0c-.02.08-.03.15-.05.22h0c-.39,1.87-.76,3.74-1.15,5.61-.35,1.67-.71,3.34-1.04,5.02-.39,2.01-.74,4.03-1.03,6.05,0,.03,0,.05,0,.08-.03.18-.05.36-.07.54-.06.5-.13.99-.19,1.49-.12,1.09-.26,2.18-.33,3.27-.13,2.12-.2,4.24-.27,6.36-.02.59-.04,1.18-.05,1.77,0,.02,0,.04,0,.07-.14,1.46-.27,2.93-.34,4.39-.07,1.62-.11,3.24-.12,4.86-.02,2.89,0,5.79.06,8.68.05,2.98.18,5.96.47,8.93.31,3.11.62,6.21.95,9.31.3,2.92.62,5.84,1.05,8.75.9,5.96,2.27,11.87,3.89,17.68-.02-.09-.05-.17-.07-.25.8,2.86,1.61,5.71,2.42,8.57.77,2.73,1.52,5.47,2.32,8.19.8,2.74,1.63,5.46,2.53,8.17.88,2.66,1.84,5.29,2.84,7.9,2.19,5.75,4.48,11.48,7.21,17,2.72,5.48,5.61,10.87,8.48,16.27,1.38,2.59,2.75,5.18,4.18,7.74,1.49,2.65,3.09,5.24,4.79,7.77,1.7,2.55,3.42,5.09,5.38,7.45,1.98,2.38,4.08,4.64,6.11,6.97-.05-.07-.11-.13-.17-.2.5.58,1.01,1.16,1.51,1.74,1.05,1.2,2.08,2.44,3.12,3.65.96,1.12,1.96,2.22,2.95,3.31,1.94,2.13,3.95,4.2,6,6.22,2.29,2.25,4.61,4.45,7,6.58,2.1,1.87,4.28,3.65,6.46,5.42,2.4,1.95,4.82,3.86,7.28,5.73,2.31,1.76,4.71,3.39,7.06,5.11,2.52,1.84,5.05,3.67,7.67,5.38,1.23.8,2.49,1.56,3.75,2.32,1.31.79,2.62,1.61,3.94,2.38,2.52,1.47,5.05,2.91,7.62,4.28,2.65,1.4,5.3,2.81,8.01,4.09,2.74,1.3,5.48,2.6,8.23,3.87,2.78,1.29,5.59,2.48,8.38,3.74,4.08,1.94,8.12,3.96,12.04,6.21.02.01.03.02.05.03,0,0,.02.01.03.02,1.39.86,2.76,1.72,4.12,2.62,1.32.87,2.59,1.8,3.85,2.76.89.73,1.75,1.47,2.58,2.26.05.14.11.27.2.39.39.59.88,1.23,1.55,1.52.04.2.12.39.22.57.12.22.25.44.36.66-.04-.07-.08-.15-.12-.23.96,1.87,1.71,3.84,2.64,5.72.98,2,2.1,3.94,3.21,5.88.06.11.12.22.18.32.64,1.17,1.18,2.39,1.79,3.57.31.61.63,1.2.95,1.8.35.65.78,1.24,1.21,1.84.83,1.14,1.78,2.17,2.74,3.2.94,1,1.88,2.01,2.87,2.96.74.71,1.47,1.45,2.29,2.08.88.68,1.75,1.38,2.69,1.98,1.92,1.22,3.95,2.23,6.04,3.12,3.91,1.66,8.14,2.74,12.38,3.09,1.93.16,3.88.3,5.82.3.24,0,.48,0,.71,0,2.18-.04,4.38-.2,6.55-.41,2.12-.21,4.23-.4,6.35-.65.84-.1,1.68-.2,2.52-.34-.98,3.71-1.83,7.45-2.53,11.22-1.32,8.7-1.33,17.54-2.48,26.27-.77,6.48-1.83,12.93-2.79,19.32,0,0,0,.02,0,.04-.84,5.62-1.25,11.29-1.65,16.96-.34,5.67-1.44,11.66-5.48,15.92-1.37,1.4-3.46,2.99-5.52,2.93-.02.23-.07.47-.16.7-1.7,4.95-4.56,9.55-9.25,12.14-6.96,3.21-9.86,8.98-11.27,16.2-3.79,17.07-2.09,34.82-5.22,51.97-3.43,18.33-24.76,16.64-25.62,44.98-.21,6.37.69,12.74,2.57,18.82,2.36,7.8,8.32,16.6-.81,22.47-4.3,2.99-8.84,6.11-10.88,11.15-3.72,8.61-5.82,18.2-7.66,27.32-2.05,11.57-1.34,19.68,10.43,24.88,1.73.79,3.17,2.65,2.4,4.61-1.31,2.57-4.39,3.64-6.58,5.36-5.17,3.45-10.41,6.81-15.54,10.34-1.54,1.06-3.26,2.79-3.86,4.37-1.96,5.31-2.59,11.63-3.59,17.02-1.78,11.81-3.46,25.87,5.38,35.36,12.2,12.23,24.8,27.12,23.91,45.45-.06,8.69-3.06,17.66.36,26.06,2.14,5.36,7.79,11.15,3.39,16.85-10.62,14.54-17.93,17.58-21.89,36.93-1.32,6.19-2.73,12.65-1.4,18.95,1.4,7,9.46,12.02,7.82,19.59-1.15,3.35-4.23,5.51-6.63,7.95-9.09,8.15-19.79,14.14-29.7,21.17-9.64,7.21-18.84,15.01-28.92,21.62-14.37,8.53-22.73,20.79-37.29,20.79-3.91,0-8.27-.88-13.31-2.96Z"/>
  </g>
  <path d="M321.15,506.81c-.56.06-1.18-.05-1.68-.16-6.54-2.08-12.04-8.94-13.33-15.6-.98-5.58,2.83-11.84,7.98-13.95.59-.15,1.13.02,1.54.36,1.11-.36,2.23-.68,3.35-1.02,2.45-.74,4.89-1.51,7.31-2.33,4.65-1.57,9.21-3.38,13.7-5.31,1.31-.57,2.62-1.14,3.92-1.72.25.09.51.14.77.14.5,0,1-.17,1.38-.54,1.51-.84,3.09-1.57,4.62-2.39,1.54-.82,3.08-1.65,4.64-2.45,1.52-.77,3.03-1.55,4.5-2.43.18-.11.37-.22.55-.33,4.08-2.14,8.07-4.32,11.82-6.54,8.14-4.85,15.98-10.18,23.45-16.01,7.41-5.81,14.44-12.08,20.81-18.52,6.78-6.89,13.1-14.2,18.73-21.62,3.03-4.04,5.94-8.16,8.7-12.38,2.57-3.92,4.99-7.93,7.27-11.95,4.73-8.43,8.91-17.14,12.46-25.93.04-.09.07-.19.11-.29v-.02c1.8-4.54,3.48-9.12,4.97-13.77,1.5-4.67,2.85-9.39,4.04-14.06l.05-.19v-.05c2.28-9.2,3.96-18.52,5.05-27.75.01-.11.02-.22.04-.33h0c.5-4.57.87-9.14,1.11-13.73.26-4.98.31-9.97.23-14.96-.21-9.5-.98-18.99-2.36-28.04-.05-.38-.11-.75-.17-1.11-1.42-8.96-3.37-17.82-5.81-26.46-1.31-4.54-2.77-9.03-4.35-13.48-1.64-4.63-3.49-9.18-5.43-13.7-1.85-4.15-3.79-8.25-5.85-12.3-2.04-3.99-4.24-7.89-6.49-11.77-2.45-4.08-4.98-8.11-7.68-12.03-1.48-2.15-3-4.28-4.54-6.39-1.36-1.86-2.79-3.68-4.2-5.51-2.89-3.61-5.84-7.16-8.93-10.6-3.11-3.46-6.33-6.8-9.63-10.08-3.15-3.04-6.35-6.03-9.66-8.9-3.32-2.88-6.71-5.68-9.95-8.13-.75-.57-1.5-1.14-2.25-1.7-3.64-2.68-7.33-5.31-11.12-7.77-3.81-2.47-7.68-4.82-11.62-7.09-4.22-2.36-8.5-4.61-12.86-6.71-4.25-2.06-8.59-3.94-12.97-5.73-4.32-1.71-8.68-3.35-13.11-4.79-4.73-1.54-9.5-2.93-14.29-4.18-5.01-1.25-10.04-2.36-15.12-3.29-5.03-.92-10.09-1.62-15.1-2.2-.02,0-.05,0-.07,0h-.05c-4.82-.5-9.65-.88-14.5-1.1-5.06-.23-10.12-.25-14.84-.16-2.19.06-4.39.12-6.58.25-2.46.14-4.92.32-7.37.52-4.69.38-9.35.99-13.68,1.62-4.52.7-9.02,1.49-13.49,2.48-4.54,1-9.04,2.14-13.51,3.39-4.3,1.25-8.57,2.59-12.8,4.07-4.35,1.52-8.63,3.22-12.88,5-1.99.86-3.98,1.73-5.94,2.65-2.24,1.04-4.46,2.12-6.67,3.22-4.09,2.04-8.07,4.28-11.77,6.41-4.09,2.45-8.14,4.95-12.07,7.64-2.08,1.42-4.14,2.87-6.18,4.35-1.84,1.34-3.64,2.71-5.21,3.92-1.82,1.44-3.62,2.87-5.4,4.36-1.89,1.58-3.75,3.19-5.6,4.81-3.5,3.08-6.85,6.33-10.14,9.63-1.51,1.55-3.02,3.11-4.49,4.7-1.62,1.75-3.21,3.53-4.79,5.32-3.12,3.54-6.05,7.23-8.93,10.97-2.99,3.97-5.88,8.01-8.61,12.17-2.87,4.36-5.55,8.82-8.13,13.36-2.2,3.97-4.32,7.99-6.26,12.09-2.05,4.3-3.95,8.66-5.75,13.05-.93,2.38-1.84,4.76-2.72,7.16-.84,2.31-1.61,4.65-2.39,6.98-1.55,4.7-2.84,9.48-4.08,14.28-.3,1.28-.61,2.55-.91,3.84-.31,1.3-.57,2.61-.85,3.91-.51,2.33-.94,4.67-1.36,7.02-.86,4.75-1.48,9.54-2.05,14.34-.45,4.48-.84,8.97-1.03,13.47-.11,2.47-.18,4.94-.22,7.41-.04,2.16-.01,4.33.01,6.5.12,4.83.3,9.66.74,14.48.23,2.59.5,5.18.79,7.76.27,2.33.61,4.64.93,6.88l.02.14v.04c.71,4.4,1.5,8.78,2.45,13.13.96,4.42,2.07,8.79,3.29,13.15,1.35,4.65,2.79,9.27,4.43,13.83.88,2.46,1.8,4.9,2.76,7.32.86,2.19,1.78,4.35,2.71,6.52.96,2.15,1.93,4.29,2.93,6.42,1,2.14,2.07,4.24,3.14,6.34,2.08,4.09,4.35,8.08,6.69,12.03,2.41,3.96,4.89,7.88,7.52,11.7,2.55,3.72,5.24,7.34,8.01,10.91,2.82,3.55,5.72,7.03,8.73,10.43,3.02,3.41,6.18,6.7,9.15,9.67,6.1,6.02,12.52,11.69,19.05,16.82-1.35,1.24-2.66,2.5-3.98,3.77-.11-.09-.22-.18-.33-.27-2.12,1.3-4.22,2.93-6.08,4.38-3.59,3-7.04,6.3-9.82,10.08-1.28,1.78-2.5,3.6-3.69,5.44l.53.41c-.95.98-1.88,1.96-2.77,2.98-.21.25-.43.49-.64.74-8.36-6.39-16.32-13.29-23.72-20.6-14.35-14.18-27.02-29.99-37.8-47.04-5.62-8.91-10.65-18.19-15.17-27.71-4.45-9.39-8.23-19.09-11.52-28.94-3.43-10.29-6.11-20.83-8.2-31.46-2-10.26-3.33-20.68-4.01-31.11C.23,271.52.01,266.15,0,260.77c0-5.46.14-10.91.43-16.36.26-5.05.71-10.11,1.32-15.13.67-5.61,1.48-11.19,2.48-16.75,1.86-10.32,4.35-20.54,7.43-30.55,3.05-9.94,6.68-19.73,10.96-29.21,4.4-9.75,9.36-19.23,14.92-28.38,2.71-4.47,5.56-8.87,8.55-13.16,3.23-4.61,6.59-9.12,10.08-13.55,6.64-8.42,13.9-16.37,21.56-23.87,7.5-7.35,15.46-14.27,23.82-20.63,7.86-5.98,16.02-11.57,24.47-16.58.54-.32,1.09-.64,1.6-.95,9.11-5.41,18.6-10.13,28.3-14.39,9.86-4.32,20.03-7.87,30.34-10.92,10.34-3.06,20.9-5.36,31.54-7.09,10.43-1.7,20.98-2.73,31.54-3.09,10.71-.37,21.45-.14,32.12.86,10.67,1,21.3,2.54,31.77,4.85,5.32,1.18,10.62,2.45,15.86,3.96,5.12,1.48,10.2,3.07,15.23,4.84,10.09,3.55,19.98,7.71,29.54,12.52,9.22,4.63,18.2,9.79,26.8,15.5,4.45,2.96,8.81,6.04,13.09,9.23,4.35,3.25,8.56,6.67,12.7,10.19,8.05,6.85,15.63,14.27,22.76,22.07,7.09,7.76,13.71,15.98,19.79,24.56,6.04,8.52,11.61,17.41,16.55,26.61,2.49,4.63,4.89,9.32,7.08,14.11,2.36,5.14,4.57,10.34,6.64,15.6,3.39,8.67,6.21,17.55,8.65,26.53,2.43,8.93,4.34,18.03,5.73,27.18h0s0,.01,0,.01c.02.11.04.23.05.34.02.14.04.29.07.43.04.24.09.48.11.72.04.22.06.44.09.66.09.61.18,1.21.26,1.82.18,1.28.35,2.55.51,3.83.31,2.54.59,5.08.83,7.63.95,10.12,1.29,20.3,1.07,30.46-.11,4.96-.38,9.92-.79,14.87-.19,2.32-.41,4.63-.66,6.95-.05.46-.07.95-.15,1.41-.03.27-.07.53-.1.8-.07.61-.14,1.22-.22,1.84-.16,1.3-.33,2.6-.52,3.9-.7,4.95-1.52,9.88-2.52,14.78-2.03,10.04-4.6,19.99-7.81,29.72-3.23,9.8-7.03,19.4-11.37,28.77-8.54,18.43-19.38,35.78-32,51.69-12.56,15.84-27.09,30.09-43.02,42.53-7.78,6.08-15.96,11.7-24.45,16.73-8.29,4.91-16.87,9.34-25.66,13.3-7.64,3.44-15.43,6.46-23.38,9.12-4.09,1.37-8.22,2.64-12.37,3.81-2.02.57-4.04,1.11-6.07,1.62-.8.2-1.6.39-2.41.56-.32.07-.65.12-.97.2-.07.02-.14.02-.21.02-.34,0-.65-.19-.83-.48Z"/>
  <g>
    <path d="M401.99,829.26s0,0,0,0c0,0,0,0,0,0Z"/>
    <path d="M401.99,829.27s0,0,0,0c0,0,0,0,0,0Z"/>
    <path d="M402.85,830.54s0,0,0,0c0,0,0,0,0,0Z"/>
    <path d="M424.19,401.6s-.02.02-.03.03c0-.01.02-.02.03-.03Z"/>
    <path d="M473.02,397.09s-.02.04-.03.05c0,0-.01.02-.02.03.02-.03.03-.05.05-.08Z"/>
    <path d="M478.08,404.07s0,0,0,0c0,0,0,0,0,0Z"/>
    <path d="M460.24,426.18s.05-.06.07-.09c-.04.04-.07.09-.11.13.01-.02.02-.03.04-.04Z"/>
    <path d="M453.55,395.75s.02.06.03.08c0-.03-.02-.06-.03-.08Z"/>
    <path d="M403.12,830.94s0,0,0,.01h0c.06.11.12.22.18.32.01.04.02.07.04.11.84,2.4,1.62,4.82,2.41,7.23.86,2.66,1.76,5.3,2.62,7.95,1.68,5.14,3.31,10.29,4.92,15.45,3.31,10.64,6.48,21.31,9.67,31.98,6.29,21.12,12.67,42.21,18.97,63.32,6.79,22.7,13.48,45.44,20.14,68.18,3.43,11.71,6.84,23.43,10.24,35.14,3.27,11.26,6.51,22.52,9.79,33.78,3.27,11.23,6.53,22.46,9.82,33.69,3.25,11.05,6.51,22.09,9.77,33.14,6.49,21.99,12.96,43.99,19.44,65.98,6.37,21.61,12.78,43.21,18.91,64.88,2.93,10.36,5.86,20.72,8.75,31.1,1.39,4.99,2.82,9.96,4.25,14.94,1.43,5,2.86,9.99,4.3,14.99,2.5,8.66,4.98,17.33,7.46,26,.67,2.34,1.34,4.68,2.02,7.01.66,2.27,1.35,4.54,1.99,6.81.21.74.46,1.46.7,2.19.11.33.07.68-.07.98,4.07,5.61,9.48,10.27,14.54,14.96,3.8,3.6,7.54,7.26,11.27,10.64,4.07,3.54,7.99,6.85,12.07,9.43-2.27-2.37-4.57-4.61-7.02-6.8-5.23-4.71-10.79-9.07-15.77-14.04-4.28-4.41-8.89-8.58-12.43-13.62-.45-.66.09-1.39.71-1.5-.67-1.92-1.26-3.88-1.86-5.82-1.62-5.32-3.22-10.65-4.84-15.97-3.04-10.05-6.05-20.1-9.04-30.16-3.09-10.41-6.19-20.83-9.29-31.24-3.14-10.56-6.27-21.13-9.41-31.7-3.2-10.77-6.39-21.55-9.58-32.33-1.61-5.46-3.21-10.93-4.82-16.39-1.54-5.21-3.08-10.41-4.6-15.63-6.14-21.04-12.3-42.07-18.39-63.13-2.93-10.12-5.83-20.25-8.77-30.36-3.09-10.61-6.18-21.21-9.29-31.82-3.16-10.8-6.36-21.59-9.51-32.39-3.12-10.69-6.24-21.39-9.36-32.08-3.01-10.3-6.01-20.6-9.07-30.88-3.18-10.69-6.36-21.38-9.59-32.05-6.19-20.43-12.36-40.86-18.27-61.37-1.43-4.98-2.86-9.96-4.3-14.94-1.29-4.47-2.63-8.91-3.98-13.36-1.49-4.88-2.98-9.77-4.46-14.65-1.29-4.25-2.56-8.49-3.79-12.75-.61-2.11-1.2-4.21-1.79-6.32-.66-2.36-1.37-4.71-2.04-7.07-.47-1.66-.94-3.32-1.4-4.98-.23-.82-.45-1.65-.67-2.48-.1-.38-.2-.76-.29-1.14-.06-.26-.09-.52-.15-.78-.03-.09-.05-.17-.06-.26-3.31.86-6.42,2-9.75,2.48-6.42.79-12.91.9-19.37.79h.14c-5.64.04-11.55-1.24-15.67-5.34-3.79-4.8-7.76-10.34-8.43-16.53-.51-.14-1.02-.29-1.53-.44.44,1.13.86,2.28,1.25,3.44,3.54,8.73,4.99,17.7,15.8,19.53,8.61,1.54,17.44,1.12,26.07-.02.39-.05.79-.1,1.18-.15.06.03.12.04.2.04.08,0,.15,0,.22.02.09.01.18.03.27.04.12.02.24.02.36.02.15,0,.3,0,.44-.02.15,0,.3-.02.45-.04h0c.14,0,.28,0,.42,0,.2.01.39.04.58.07s.38.07.57.11c.18.04.37.06.55.09.16.02.3.05.46.08.12.04.25.07.37.11.12.04.24.07.36.11.19.06.37.13.55.2.2.08.39.18.58.27t0,0c.23.13.46.26.68.41.06.04.12.09.18.13h0c.07.05.14.11.21.16.02.01.03.02.04.03.12.09.23.19.34.29.02.01.03.02.04.04.01.01.02.02.04.03h0s.05.06.07.09.04.05.07.08h0s0,0,0,0c.15.21.29.42.42.64.07.11.13.23.21.33.07.1.14.19.22.28h0s0,0,0,.01l.04.05s.02.03.04.04h0c.07.1.14.2.21.31ZM463.19,875.52c.29.12.5.38.57.7.05.21.1.43.15.63.07.28.18.56.25.84.1.35.19.7.27,1.04v.05s.02,0,.02,0c.18.69.36,1.38.51,1.95.22.87.49,1.72.75,2.58.29.95.59,1.9.87,2.85.56,1.88,1.12,3.76,1.67,5.64.77,2.6,1.51,5.21,2.27,7.81.77,2.66,1.56,5.32,2.35,7.98.87,2.95,1.72,5.9,2.54,8.86.93,3.38,1.88,6.75,2.83,10.12.95,3.39,1.9,6.77,2.86,10.16,1.03,3.65,2.09,7.29,3.16,10.94,2.87,9.85,5.72,19.7,8.55,29.56,1.5,5.23,3,10.46,4.5,15.7,1.34,4.71,2.66,9.43,4.02,14.14,1.34,4.69,2.69,9.37,4.03,14.06,1.43,5,2.84,10.01,4.25,15.02,3.02,10.7,6.04,21.41,9.07,32.11,5.73,20.21,11.57,40.38,17.42,60.55,6.11,21.07,11.99,42.21,18,63.31,2.91,10.21,5.8,20.43,8.73,30.64,3.02,10.55,6.07,21.11,9.12,31.65,5.85,20.21,11.63,40.43,17.43,60.66,2.73,9.51,5.49,19.02,8.22,28.53,2.61,9.09,5.16,18.19,7.68,27.3,1.26,4.54,2.51,9.07,3.78,13.6,1.39,4.96,2.79,9.93,4.16,14.9,2.86,10.4,5.8,20.78,8.72,31.16.44,1.57.88,3.13,1.32,4.7.1.37.2.74.3,1.11,1.45,0,2.96-.1,4.52-.34-.19-.46-.33-.93-.49-1.4-.75-2.25-1.43-4.52-2.11-6.78-1.49-4.91-3.03-9.8-4.5-14.71-1.36-4.5-2.7-9.02-4.04-13.52-1.32-4.45-2.62-8.91-3.98-13.34-1.22-3.97-2.48-7.93-3.67-11.91-1.38-4.59-2.73-9.2-4.07-13.8-2.96-10.11-5.97-20.21-8.93-30.33-6.13-20.95-12.09-41.96-18.1-62.95-3.1-10.82-6.15-21.65-9.24-32.48-3.06-10.72-6.11-21.45-9.16-32.18-6.2-21.77-12.46-43.52-18.66-65.29-6.06-21.27-12.11-42.53-18.14-63.8-3.08-10.88-6.12-21.76-9.22-32.62-3-10.51-6.02-21.01-9-31.52-3.01-10.58-5.95-21.18-8.94-31.77-2.86-10.09-5.74-20.18-8.58-30.27-1.32-4.7-2.66-9.4-3.99-14.1-1.34-4.75-2.71-9.48-4.06-14.23-2.2-7.73-4.42-15.45-6.52-23.21-1.05-3.9-2.12-7.8-3.22-11.69-.54-1.9-1.08-3.8-1.61-5.7-.14-.52-.29-1.04-.44-1.56-.16-.31-.25-.71-.31-1.12-.25-.92-.5-1.85-.71-2.78,0-.02,0-.04-.01-.05-.11-.36-.26-.72-.37-1.08-.12-.4-.24-.8-.36-1.21-.02-.09-.04-.17-.04-.26-.46-1.4-.96-2.8-1.43-4.2.38,2.9,1.16,5.72,1.83,8.57.04,1.07,1.69,4.4.02,4.55-.24,0-.48-.11-.63-.32-1.23-2.3-2.02-4.77-3.11-7.09.33,1.21.62,2.41.94,3.61ZM621.38,1441.31c-3.73-.05-7.25-.99-10.55-2.49-1.38.01-2.55,0-3.16.05-9.13.1-17.32-4.92-24.26-10.4-4.88-3.71-9.6-7.64-14.05-11.87-9.46-8.87-14.84-13.51-17.71-26.75-.41-1.33.6-2.27,1.65-2.34-1.38-4.2-2.79-8.39-4.17-12.58-1.53-4.62-3.12-9.23-4.68-13.85-1.64-4.85-3.23-9.72-4.8-14.59-1.43-4.43-2.84-8.88-4.25-13.32-1.25-3.95-2.52-7.9-3.74-11.86-2.91-9.38-5.76-18.79-8.59-28.19-3.12-10.38-6.21-20.76-9.28-31.15-3.14-10.64-6.21-21.3-9.33-31.95-3.05-10.42-6.12-20.83-9.21-31.23-3.19-10.76-6.42-21.51-9.6-32.27-3.15-10.66-6.29-21.31-9.5-31.95-3.19-10.57-6.41-21.13-9.63-31.69-3.18-10.41-6.35-20.83-9.51-31.25-3.18-10.47-6.43-20.93-9.66-31.39-3.2-10.36-6.29-20.74-9.46-31.11-1.59-5.21-3.22-10.42-4.79-15.64-1.48-4.9-2.91-9.81-4.37-14.71-2.88-9.7-5.71-19.42-8.62-29.12-3.05-10.18-6.14-20.36-9.19-30.54-3.11-10.38-6.15-20.77-9.27-31.14-1.59-5.3-3.18-10.6-4.75-15.9-.75-2.55-1.52-5.09-2.31-7.63-.48-1.54-.97-3.09-1.4-4.65-.13-.48-.26-.96-.36-1.45-.07-.34-.12-.67-.15-.95-.03-.23-.08-.46-.08-.49-.3-1.16-.68-2.3-1.05-3.45-.17-.55-.35-1.09-.52-1.64-.15-.46-.36-.98-.4-1.48-.04.02-.09.04-.13.06-4.82,1.7-10.04,1.81-15.1,1.84-6.98-.06-14.33-1.97-20.54-5.15-3.79-2.53-6.77-6.18-9.38-9.89-3.82-5.81-6.53-12.39-11.52-17.31-11.86-13.14-28.8-19.16-43.5-28.35-15.41-9.21-30.25-19.51-43.28-31.91-17.35-16.54-32.38-35.57-43.33-56.93-7.61-14.55-12.39-30.33-17.12-46-3.54-15.84-5.27-32.11-5.38-48.34-.28-10.92.67-21.82,1.42-32.71.46-10.8,3.03-21.33,5.42-31.84,1.04-5.35,3.39-10.27,5.4-15.3,1.7-4.46,3.69-8.79,5.67-13.12.35-1.03.71-2.05,1.08-3.07.85-2.32,1.73-4.62,2.62-6.93.92-2.38,1.93-4.71,2.94-7.05.84-1.95,1.71-3.89,2.63-5.8,2.05-4.29,4.16-8.55,6.46-12.7,1.25-2.24,2.52-4.46,3.81-6.68,1.25-2.13,2.58-4.22,3.9-6.3,1.15-1.81,2.34-3.59,3.55-5.36,1.34-1.96,2.69-3.93,4.11-5.85,1.55-2.08,3.11-4.15,4.69-6.2,1.45-1.87,2.96-3.68,4.47-5.5,1.39-1.68,2.83-3.33,4.29-4.96,1.59-1.79,3.19-3.58,4.85-5.3,2.9-3.02,5.83-5.98,8.87-8.86-.44-1.15,0-2.59,1.21-3.12.16-.12.31-.26.31-.26,1.61-1.42,3.2-2.86,4.82-4.26,2.3-1.99,4.63-3.94,7-5.84,4.99-4.02,10.15-7.81,15.21-11.23,7.06-4.77,14.31-9.24,21.86-13.2,7.45-3.91,15.11-7.42,22.96-10.43,16.79-6.44,34.35-10.81,52.18-13.11,9.35-1.21,18.75-1.75,28.18-1.82,4.62-.04,9.24.14,13.85.41,4.78.28,9.54.75,14.29,1.3,2.25.26,4.49.6,6.73.93,1.09.16,2.18.33,3.27.52-.45.97-.9,1.93-1.38,2.89-1.23,2.21-2.6,4.35-3.88,6.54-1.26,2.16-2.61,4.27-4,6.35.05-.07.1-.14.14-.22-1.64,2.41-3.26,4.84-4.98,7.2-1.7,2.34-3.42,4.67-5.18,6.97h0c-.07.09-.15.2-.23.29.05-.07.11-.14.16-.21-.97,1.25-1.93,2.49-2.93,3.71-.92,1.13-1.9,2.22-2.89,3.3,0,0,0-.01.01-.02-.02.02-.03.03-.04.05-.04.04-.08.08-.12.13,0,0,0,0,0,0,0,0,0,0,0,.01h0c-1.36,1.48-2.73,2.94-4.2,4.32-.64.6-1.27,1.2-1.91,1.81-1.45-.5-2.92-.96-4.41-1.37-3.04-.79-6.11-1.41-9.22-1.86-3.74-.48-7.49-.73-11.03-.76-3.95,0-7.87.25-11.44.68-4.39.55-8.75,1.36-12.95,2.43l-.3.08c-4.49,1.18-8.93,2.59-12.92,4.19l-.2.08c-3.15,1.27-6.25,2.66-9.28,4.21-.5.25-1.05.32-1.58.23-.58.32-1.16.64-1.68.93-.04.02-.08.05-.12.07l-.05.03c-2.17,1.25-4.3,2.56-6.41,3.93-2.1,1.36-4.14,2.82-5.96,4.19-.07.05-.15.11-.22.17h0c-3.84,2.93-7.48,6.08-10.93,9.46-1.52,1.52-3.02,3.08-4.44,4.7-1.54,1.75-3.02,3.55-4.45,5.39-2.16,2.88-4.17,5.86-5.95,8.9-.02.03-.03.05-.06.11-.07.13-.15.27-.2.35-1.55,2.7-2.93,5.5-4.14,8.37,0,.01-.01.02-.01.03-.13.32-.27.65-.4.97-1.06,2.62-1.93,5.32-2.58,7.73-.63,2.44-1.11,4.9-1.48,7.4-.28,2.24-.47,4.5-.49,6.42,0,.39,0,.79,0,1.18,0,1.86.15,3.73.36,5.57.29,2.12.68,4.21,1.2,6.29.51,1.82,1.08,3.62,1.77,5.33.02.05.04.1.06.16h0c.02.06.04.11.05.15,0,.01.01.02.02.04.38.89.77,1.77,1.2,2.64.43.87.89,1.73,1.36,2.58.96,1.61,1.99,3.16,3.09,4.68.62.81,1.26,1.61,1.93,2.38.7.82,1.44,1.6,2.19,2.38.79.77,1.58,1.54,2.42,2.27.88.76,1.77,1.49,2.68,2.2,1.84,1.36,3.73,2.61,5.7,3.77,2.34,1.31,4.74,2.47,7.21,3.5,2.64,1.04,5.31,1.92,8.05,2.66,2.81.71,5.64,1.3,8.52,1.7.25.04.5.07.75.1.02,0,.05,0,.07,0,3.54.43,7.08.65,10.64.68,3.86-.03,7.69-.26,11.51-.71,4.18-.54,8.34-1.3,12.37-2.32,2.4-.62,4.79-1.29,7.14-2.07,2.26-.75,4.5-1.56,6.72-2.43,4.68-1.91,9.22-4.07,13.31-6.36,2.2-1.25,4.35-2.56,6.47-3.93s4.17-2.86,5.91-4.14c3.89-2.96,7.57-6.16,11.05-9.6,3.04-3.09,5.88-6.34,8.53-9.78,2.09-2.8,4.03-5.7,5.62-8.41.23-.4.46-.8.64-1.14,1.54-2.72,2.89-5.55,4.09-8.44,1.03-2.6,1.92-5.23,2.67-7.92.65-2.5,1.15-5.02,1.51-7.58.29-2.3.44-4.6.46-6.91,0-2.04-.12-4.06-.35-6.08-.27-2.01-.64-4-1.12-5.96-.23-.85-.47-1.7-.74-2.54.48-.43.96-.87,1.43-1.32,1.35-1.3,2.68-2.61,3.98-3.95,2.37-2.44,4.64-5.01,6.7-7.73,2.62-3.46,5.19-6.96,7.72-10.48,1.29-1.79,2.55-3.59,3.83-5.38,1.37-1.91,2.77-3.81,4.15-5.72-.05.07-.11.14-.16.22.06-.09.13-.18.19-.26-.01.02-.02.04-.04.05.01-.02.02-.04.04-.05.02-.03.05-.06.07-.1,0,0,0,0,0,0h0s0,0,0,0c0,0,0-.01.01-.02,0,0,0-.01.01-.02.01-.01.02-.02.03-.04-.01.01-.02.02-.03.04,0,0,0,0,0,0,1.66-2.3,3.18-4.7,4.64-7.13,1.49-2.46,2.86-5,4.27-7.51,2.06-3.66,4.38-7.2,6.26-10.96.23-.47.46-.94.68-1.41.5.2,1,.39,1.5.59,4.51,1.76,8.93,3.75,13.3,5.82,2.09.99,4.16,2.02,6.21,3.08,2.03,1.05,4.07,2.1,6.06,3.22,2.18,1.23,4.36,2.47,6.52,3.74,2.12,1.24,4.2,2.57,6.27,3.89,1.91,1.21,3.77,2.48,5.64,3.75,1.81,1.23,3.61,2.49,5.37,3.79,3.17,2.33,6.32,4.7,9.35,7.2,3.22,2.65,6.43,5.32,9.49,8.15,3.01,2.77,5.99,5.57,8.85,8.49,1.6,1.64,3.18,3.3,4.76,4.96,1.48,1.57,2.91,3.2,4.32,4.8.33.38.66.75.99,1.12,3.07,3.5,5.96,7.14,8.79,10.84,2.84,3.71,5.59,7.52,8.17,11.42,1.33,2.02,2.64,4.05,3.93,6.09,1.32,2.09,2.57,4.23,3.83,6.37,2.35,3.99,4.47,8.11,6.57,12.23,2.23,4.39,4.23,8.9,6.17,13.43,1.89,4.43,3.55,8.96,5.15,13.5,1.62,4.58,3,9.23,4.32,13.9,1.29,4.55,2.34,9.16,3.33,13.78.99,4.61,1.76,9.26,2.46,13.92.7,4.59,1.15,9.22,1.56,13.84.42,4.7.59,9.43.72,14.14.07,2.27.07,4.55.03,6.81-.05,2.41-.09,4.8-.2,7.21-.22,4.74-.54,9.48-1.07,14.19-.52,4.66-1.11,9.32-1.93,13.94-.45,2.5-.88,5-1.41,7.49-.52,2.47-1.07,4.93-1.64,7.39-1.09,4.7-2.44,9.33-3.84,13.94-2.8,9.24-6.36,18.25-10.34,27.04-.94,2.07-1.93,4.13-2.95,6.17-1.05,2.1-2.1,4.2-3.22,6.27-.59,1.09-1.19,2.18-1.79,3.27-.85,1.88-1.69,3.77-2.48,5.67-6.73,14.32-10.06,29.98-12.26,45.54-.7,13.47-.32,27.16,1.95,40.48,1.75,8.63,4.79,16.93,6.71,25.52,1.5,6.35,2.74,12.77,4.03,19.1,0,0,0,.02,0,.04,1.14,5.57,2.71,11.04,4.29,16.5,1.63,5.44,2.66,11.44.33,16.84-.8,1.79-2.22,4-4.17,4.66.07.22.1.46.09.7.11,5.23-1,10.54-4.5,14.58-5.43,5.41-6.16,11.82-5,19.08,2.31,17.33,10.02,33.42,12.98,50.6,3.09,18.39-17.52,24.15-8.58,51.05,2,6.05,5.03,11.72,8.89,16.79,4.91,6.52,13.53,12.72,6.98,21.38-3.01,4.29-6.2,8.78-6.38,14.21-.53,9.37.8,19.09,2.21,28.29,2.05,11.57,5.51,18.94,18.36,19.77,1.9.15,3.89,1.4,3.84,3.5-.35,2.86-2.87,4.93-4.33,7.3-3.67,5.02-7.43,9.98-11.03,15.05-1.08,1.53-2.1,3.74-2.12,5.43-.02,5.66,1.57,11.82,2.49,17.22,2.39,11.7,5.65,25.48,17.21,31.34,15.66,7.29,32.62,16.93,38.09,34.45,2.93,8.18,3.2,17.64,9.3,24.35,3.85,4.3,11.15,7.79,8.98,14.65-4.97,17.3-10.79,22.68-7.84,42.21.89,6.27,1.79,12.82,5.21,18.27,3.72,6.09,13.02,8.02,14.08,15.71.07,3.54-2.07,6.62-3.49,9.75-5.73,10.78-13.71,20.08-20.6,30.1-6.57,10.09-12.52,20.57-19.71,30.25-13.04,16.01-15.5,34.2-39.43,34.2-.64,0-1.29-.02-1.95-.04Z"/>
  </g>
</svg>