<?xml version="1.0" encoding="UTF-8"?>
<svg id="Layer_1" data-name="Layer 1" xmlns="http://www.w3.org/2000/svg" viewBox="0 0 667.61 1286.42">
  <path d="M350.25,506.81c-.56.06-1.18-.05-1.68-.16-6.54-2.08-12.04-8.94-13.33-15.6-.98-5.58,2.83-11.84,7.98-13.95.59-.15,1.13.02,1.54.36,1.11-.36,2.23-.68,3.35-1.02,2.45-.74,4.89-1.51,7.31-2.33,4.65-1.57,9.21-3.38,13.7-5.31,1.31-.57,2.62-1.14,3.92-1.72.25.09.51.14.77.14.5,0,1-.17,1.38-.54,1.51-.84,3.09-1.57,4.62-2.39,1.54-.82,3.08-1.65,4.64-2.45,1.52-.77,3.03-1.55,4.5-2.43.18-.11.37-.22.55-.33,4.07-2.14,8.07-4.32,11.82-6.54,8.14-4.85,15.98-10.18,23.45-16.01,7.41-5.81,14.44-12.08,20.81-18.52,6.78-6.89,13.1-14.2,18.73-21.62,3.03-4.04,5.94-8.16,8.7-12.38,2.57-3.92,4.99-7.93,7.27-11.95,4.73-8.43,8.91-17.14,12.46-25.93.04-.09.07-.19.11-.29v-.02c1.8-4.54,3.48-9.12,4.97-13.77,1.5-4.67,2.85-9.39,4.04-14.06l.05-.19v-.05c2.28-9.2,3.96-18.52,5.05-27.75.01-.11.02-.22.04-.33h0c.5-4.57.87-9.14,1.11-13.73.26-4.98.31-9.97.23-14.96-.21-9.5-.98-18.99-2.36-28.04-.05-.38-.11-.75-.17-1.11-1.42-8.96-3.37-17.82-5.81-26.46-1.31-4.54-2.77-9.03-4.35-13.48-1.64-4.63-3.49-9.18-5.43-13.7-1.85-4.15-3.79-8.25-5.85-12.3-2.04-3.99-4.24-7.89-6.49-11.77-2.45-4.08-4.98-8.11-7.68-12.03-1.48-2.15-3-4.28-4.54-6.39-1.36-1.86-2.79-3.68-4.2-5.51-2.89-3.61-5.84-7.16-8.93-10.6-3.11-3.46-6.33-6.8-9.63-10.08-3.15-3.04-6.35-6.03-9.66-8.9-3.32-2.88-6.71-5.68-9.95-8.13-.75-.57-1.5-1.14-2.25-1.7-3.64-2.68-7.33-5.31-11.12-7.77-3.81-2.47-7.68-4.82-11.62-7.09-4.22-2.36-8.5-4.61-12.86-6.71-4.25-2.06-8.59-3.94-12.97-5.73-4.32-1.71-8.68-3.35-13.11-4.79-4.73-1.54-9.5-2.93-14.29-4.18-5.01-1.25-10.04-2.36-15.12-3.29-5.03-.92-10.09-1.62-15.1-2.2-.02,0-.05,0-.07,0h-.05c-4.82-.5-9.65-.88-14.5-1.1-5.06-.23-10.12-.25-14.84-.16-2.19.06-4.39.12-6.58.25-2.46.14-4.92.32-7.37.52-4.69.38-9.35.99-13.68,1.62-4.52.7-9.02,1.49-13.49,2.48-4.54,1-9.04,2.14-13.51,3.39-4.3,1.25-8.57,2.59-12.8,4.07-4.35,1.52-8.63,3.22-12.88,5-1.99.86-3.98,1.73-5.94,2.65-2.24,1.04-4.46,2.12-6.67,3.22-4.09,2.04-8.07,4.28-11.77,6.41-4.09,2.45-8.14,4.95-12.07,7.64-2.08,1.42-4.14,2.87-6.18,4.35-1.84,1.34-3.64,2.71-5.21,3.92-1.82,1.44-3.62,2.87-5.4,4.36-1.89,1.58-3.75,3.19-5.6,4.81-3.5,3.08-6.85,6.33-10.14,9.63-1.51,1.55-3.02,3.11-4.49,4.7-1.62,1.75-3.21,3.53-4.79,5.32-3.12,3.54-6.05,7.23-8.93,10.97-2.99,3.97-5.88,8.01-8.61,12.17-2.87,4.36-5.55,8.82-8.13,13.36-2.2,3.97-4.32,7.99-6.26,12.09-2.05,4.3-3.95,8.66-5.75,13.05-.93,2.38-1.84,4.76-2.72,7.16-.84,2.31-1.61,4.65-2.39,6.98-1.55,4.7-2.84,9.48-4.08,14.28-.3,1.28-.61,2.55-.91,3.84-.31,1.3-.57,2.61-.85,3.91-.51,2.33-.94,4.67-1.36,7.02-.86,4.75-1.48,9.54-2.05,14.34-.45,4.48-.84,8.97-1.03,13.47-.11,2.47-.18,4.94-.22,7.41-.04,2.16-.01,4.33.01,6.5.12,4.83.3,9.66.74,14.48.23,2.59.5,5.18.79,7.76.27,2.33.61,4.64.93,6.88,0,.05.02.09.02.14v.04c.71,4.4,1.5,8.78,2.45,13.13.96,4.42,2.07,8.79,3.29,13.15,1.35,4.65,2.79,9.27,4.43,13.83.88,2.46,1.8,4.9,2.76,7.32.86,2.19,1.78,4.35,2.71,6.52.96,2.15,1.93,4.29,2.93,6.42,1,2.14,2.07,4.24,3.14,6.34,2.08,4.09,4.35,8.08,6.69,12.03,2.41,3.96,4.89,7.88,7.52,11.7,2.55,3.72,5.24,7.34,8.01,10.91,1.89,2.38,3.81,4.72,5.78,7.03-.5.25-1,.51-1.49.77-5.27,2.88-10.31,6.02-15.27,9.39-4.27,2.91-8.49,6.05-12.4,9.42-1.17,1.01-2.33,2.03-3.48,3.08-9-10.31-17.19-21.32-24.5-32.9-5.62-8.91-10.65-18.19-15.17-27.71-4.45-9.39-8.23-19.09-11.52-28.94-3.43-10.29-6.11-20.83-8.2-31.46-2-10.26-3.33-20.68-4.01-31.11-.35-5.36-.57-10.74-.59-16.12,0-5.46.14-10.91.43-16.36.26-5.05.71-10.11,1.32-15.13.67-5.61,1.48-11.19,2.48-16.75,1.86-10.32,4.35-20.54,7.43-30.55,3.05-9.94,6.68-19.73,10.96-29.21,4.4-9.75,9.36-19.23,14.92-28.38,2.71-4.47,5.56-8.87,8.55-13.16,3.23-4.61,6.59-9.12,10.08-13.55,6.64-8.42,13.9-16.37,21.56-23.87,7.5-7.35,15.46-14.27,23.82-20.63,7.86-5.98,16.02-11.57,24.47-16.58.54-.32,1.09-.64,1.6-.95,9.11-5.41,18.6-10.13,28.3-14.39,9.86-4.32,20.03-7.87,30.34-10.92,10.34-3.06,20.9-5.36,31.54-7.09,10.43-1.7,20.98-2.73,31.54-3.09,10.71-.37,21.45-.14,32.12.86,10.67,1,21.3,2.54,31.77,4.85,5.32,1.18,10.62,2.45,15.86,3.96,5.12,1.48,10.2,3.07,15.23,4.84,10.09,3.55,19.98,7.71,29.54,12.52,9.22,4.63,18.2,9.79,26.8,15.5,4.45,2.96,8.81,6.04,13.09,9.23,4.35,3.25,8.56,6.67,12.7,10.19,8.05,6.85,15.63,14.27,22.76,22.07,7.09,7.76,13.71,15.98,19.79,24.56,6.04,8.52,11.61,17.41,16.55,26.61,2.49,4.63,4.89,9.32,7.08,14.11,2.36,5.14,4.57,10.34,6.64,15.6,3.39,8.67,6.21,17.55,8.65,26.53,2.43,8.93,4.34,18.03,5.73,27.18h0s0,.01,0,.01c.02.11.04.23.05.34.02.14.04.29.07.43.04.24.09.48.11.72.04.22.06.44.09.66.09.61.18,1.21.26,1.82.18,1.28.35,2.55.51,3.83.31,2.54.59,5.08.83,7.63.95,10.12,1.29,20.3,1.07,30.46-.11,4.96-.38,9.92-.79,14.87-.19,2.32-.41,4.63-.66,6.95-.05.46-.07.95-.15,1.41-.03.27-.07.53-.1.8-.07.61-.14,1.22-.22,1.84-.16,1.3-.33,2.6-.52,3.9-.7,4.95-1.52,9.88-2.52,14.78-2.03,10.04-4.6,19.99-7.81,29.72-3.23,9.8-7.03,19.4-11.37,28.77-8.54,18.43-19.38,35.78-32,51.69-12.56,15.84-27.09,30.09-43.02,42.53-7.78,6.08-15.96,11.7-24.45,16.73-8.29,4.91-16.87,9.34-25.66,13.3-7.64,3.44-15.43,6.46-23.38,9.12-4.09,1.37-8.22,2.64-12.37,3.81-2.02.57-4.04,1.11-6.07,1.62-.8.2-1.6.39-2.41.56-.32.07-.65.12-.97.2-.07.02-.14.02-.21.02-.34,0-.65-.19-.83-.48Z"/>
  <path d="M662.6,1187.96c5.86,4.68,5.43,10.55,4.35,17.23-1.65,16.59-6.93,32.5-14.38,47.34-7.29,15.71-19.25,35.68-39.19,33.75-4.07-.41-7.8-2.15-11.38-4.04-9.04-4.91-17.31-11.04-25.87-16.71-20.48-14.27-35.28-16.78-44.29-42.79-5.06-14.01-8.87-28.45-13.49-42.61-4.46-15.04-8.43-30.22-13.59-45.04-10.69-35.72-22.01-71.22-33.83-106.6-4.61-15.62-8.77-31.38-12.98-47.11-3.51-13.31-6.09-26.84-9.62-40.15-.02-.06-.03-.12-.05-.18,0,0,0,0,0-.01,0-.02-.01-.04-.02-.06,0-.04-.02-.07-.03-.1,0-.02,0-.03,0-.04s0-.02,0-.03,0-.02,0-.03c-.01-.05-.03-.09-.04-.14-4.23-16.1-8.07-30.94-12.55-46.8-2.51-9.32-5.54-18.5-9.19-27.45-2.3-5.19-4.1-10.89-8.07-15.08-10.24,2.99-24.86,8.02-31.88-3.22-5.36-9.75-10.46-19.82-13.86-30.44-5.91-2.01-11.9-3.73-17.92-5.39-10.75-8.26-23.64-13.51-35.15-20.71-15.41-9.21-30.25-19.51-43.28-31.91-17.35-16.54-32.38-35.57-43.33-56.93-7.61-14.55-12.39-30.33-17.12-46-3.54-15.84-5.27-32.11-5.38-48.34-.28-10.92.67-21.82,1.42-32.71.46-10.8,3.03-21.33,5.42-31.84,1.04-5.35,3.39-10.27,5.4-15.3,1.7-4.46,3.69-8.79,5.67-13.12.35-1.03.71-2.05,1.08-3.07.85-2.32,1.73-4.62,2.62-6.93.92-2.38,1.93-4.71,2.94-7.05.84-1.95,1.71-3.89,2.63-5.8,2.05-4.29,4.16-8.55,6.46-12.7,1.25-2.24,2.52-4.46,3.81-6.68,1.25-2.13,2.58-4.22,3.9-6.3,1.15-1.81,2.34-3.59,3.55-5.36,1.34-1.96,2.69-3.93,4.11-5.85,1.55-2.08,3.11-4.15,4.69-6.2,1.45-1.87,2.96-3.68,4.47-5.5,1.39-1.68,2.83-3.33,4.29-4.96,1.59-1.79,3.19-3.58,4.85-5.3,2.9-3.02,5.83-5.98,8.87-8.86-.44-1.15,0-2.59,1.21-3.12.16-.12.31-.26.31-.26,1.61-1.42,3.2-2.86,4.82-4.26,2.3-1.99,4.63-3.94,7-5.84,4.99-4.02,10.15-7.81,15.21-11.23,7.06-4.77,14.31-9.24,21.86-13.2,7.45-3.91,15.11-7.42,22.96-10.43,16.79-6.44,34.35-10.81,52.18-13.11,9.35-1.21,18.75-1.75,28.18-1.82,4.62-.04,9.24.14,13.85.41,4.78.28,9.54.75,14.29,1.3.43.05.87.1,1.3.16-.47.86-.94,1.72-1.4,2.59-1.04,1.94-2,3.91-3.09,5.82-2.27,3.84-4.59,7.66-7.07,11.37-4.45,6.27-8.9,12.56-13.79,18.5-1.27,1.45-2.59,2.85-3.95,4.22-2.33-.54-4.68-.98-7.05-1.32-3.74-.48-7.49-.73-11.03-.76-3.95,0-7.87.25-11.44.68-4.39.55-8.75,1.36-12.95,2.43l-.3.08c-4.49,1.18-8.93,2.59-12.92,4.19l-.2.08c-3.15,1.27-6.25,2.66-9.28,4.21-.5.25-1.05.32-1.58.23-.58.32-1.16.64-1.68.93-.04.02-.08.05-.12.07l-.05.03c-2.17,1.25-4.3,2.56-6.41,3.93-2.1,1.36-4.14,2.82-5.96,4.19-.07.05-.15.11-.22.17h0c-3.84,2.93-7.48,6.08-10.93,9.46-1.52,1.52-3.02,3.08-4.44,4.7-1.54,1.75-3.02,3.55-4.45,5.39-2.16,2.88-4.17,5.86-5.95,8.9-.02.03-.03.05-.06.11-.07.13-.15.27-.2.35-1.55,2.7-2.93,5.5-4.14,8.37,0,.01-.01.02-.01.03-.13.32-.27.65-.4.97-1.06,2.62-1.93,5.32-2.58,7.73-.63,2.44-1.11,4.9-1.48,7.4-.28,2.24-.47,4.5-.49,6.42,0,.39,0,.79,0,1.18,0,1.86.15,3.73.36,5.57.29,2.12.68,4.21,1.2,6.29.51,1.82,1.08,3.62,1.77,5.33.02.05.04.1.06.16h0c.02.06.04.11.05.15,0,.01.01.02.02.04.38.89.77,1.77,1.2,2.64.43.87.89,1.73,1.36,2.58.96,1.61,1.99,3.16,3.09,4.68.62.81,1.26,1.61,1.93,2.38.7.82,1.44,1.6,2.19,2.38.79.77,1.58,1.54,2.42,2.27.88.76,1.77,1.49,2.68,2.2,1.84,1.36,3.73,2.61,5.7,3.77,2.34,1.31,4.74,2.47,7.21,3.5,2.64,1.04,5.31,1.92,8.05,2.66,2.81.71,5.64,1.3,8.52,1.7.25.04.5.07.75.1.02,0,.05,0,.07,0,3.54.43,7.08.65,10.64.68,3.86-.03,7.69-.26,11.51-.71,4.18-.54,8.34-1.3,12.37-2.32,2.4-.62,4.79-1.29,7.14-2.07,2.26-.75,4.5-1.56,6.72-2.43,4.68-1.91,9.22-4.07,13.31-6.36,2.2-1.25,4.35-2.56,6.47-3.93s4.17-2.86,5.91-4.14c3.89-2.96,7.57-6.16,11.05-9.6,3.04-3.09,5.88-6.34,8.53-9.78,2.09-2.8,4.03-5.7,5.62-8.41.23-.4.46-.8.64-1.14,1.54-2.72,2.89-5.55,4.09-8.44,1.03-2.6,1.92-5.23,2.67-7.92.65-2.5,1.15-5.02,1.51-7.58.29-2.3.44-4.6.46-6.91,0-.44,0-.88-.02-1.32.77-.82,1.53-1.63,2.29-2.45,2.41-2.59,4.93-5.07,7.24-7.75,4.83-5.61,9.22-11.62,13.56-17.62,2.86-3.94,5.43-8.08,8.12-12.14,2.68-4.03,5.19-8.21,7.55-12.44,1.2-2.16,2.33-4.36,3.46-6.56,1.07-2.06,2.21-4.08,3.27-6.14,1.18-2.3,2.29-4.63,3.25-7.01,2.57,1.11,5.12,2.28,7.65,3.48,2.09.99,4.16,2.02,6.21,3.08,2.03,1.05,4.07,2.1,6.06,3.22,2.18,1.23,4.36,2.47,6.52,3.74,2.12,1.24,4.2,2.57,6.27,3.89,1.91,1.21,3.77,2.48,5.64,3.75,1.81,1.23,3.61,2.49,5.37,3.79,3.17,2.33,6.32,4.7,9.35,7.2,3.22,2.65,6.43,5.32,9.49,8.15,3.01,2.77,5.99,5.57,8.85,8.49,1.6,1.64,3.18,3.3,4.76,4.96,1.48,1.57,2.91,3.2,4.32,4.8.33.38.66.75.99,1.12,3.07,3.5,5.96,7.14,8.79,10.84,2.84,3.71,5.59,7.52,8.17,11.42,1.33,2.02,2.64,4.05,3.93,6.09,1.32,2.09,2.57,4.23,3.83,6.37,2.35,3.99,4.47,8.11,6.57,12.23,2.23,4.39,4.23,8.9,6.17,13.43,1.89,4.43,3.55,8.96,5.15,13.5,1.62,4.58,3,9.23,4.32,13.9,1.29,4.55,2.34,9.16,3.33,13.78.99,4.61,1.76,9.26,2.46,13.92.7,4.59,1.15,9.22,1.56,13.84.42,4.7.59,9.43.72,14.14.07,2.27.07,4.55.03,6.81-.05,2.41-.09,4.8-.2,7.21-.22,4.74-.54,9.48-1.07,14.19-.52,4.66-1.11,9.32-1.93,13.94-.45,2.5-.88,5-1.41,7.49-.52,2.47-1.07,4.93-1.64,7.39-1.09,4.7-2.44,9.33-3.84,13.94-2.8,9.24-6.36,18.25-10.34,27.04-.94,2.07-1.93,4.13-2.95,6.17-1.05,2.1-2.1,4.2-3.22,6.27-.09.16-.17.32-.26.48-.98,1.31-1.99,2.6-3,3.88-4.48,5.3-9.33,10.27-13.79,15.6-4.5,5.37-9.52,10.23-14.61,15.03-4.47,4.08-9,8.1-13.5,12.15-1.49,8.49-2.87,17.1-1.89,25.7.62,4.79,1.65,9.53,2.59,14.27,1.3,5.79,2.16,12.92-2.97,17.14-3.31,3.14-7.39,5.23-11.41,7.28-.62.34-1.19.75-1.3,1.48-1.02,4.58.02,9.35.4,13.96.84,6,2.52,11.84,4.59,17.52,6.46,15.57,24.3,24.05,10.47,41.99,1.49,8.45,3.99,16.66,6.18,24.95,1.6,5.75,2.64,11.66,4.57,17.32,4.27,9.9,10.79,18.61,15.78,28.16,3.89,7.64,10.67,17.3,5.02,25.69-2.78,4.06-7.7,5.84-10.55,9.78-.55,1.2-.09,2.6-.05,3.87.75,5.61,1.71,11.18,3.02,16.69,1.66,6.18,4.25,12.04,7.39,17.6,2.86,5.8,12.21,13.66,7.9,20.24-1.16,1.64-2.79,2.76-4.32,4.02-1.91,2.17-4.18,4.21-5.96,6.53.02.04.05.09.07.14.69,1.39.9,2.84,1.06,4.37.65,4.94,1.52,9.86,2.05,14.82,1.31,8.13,1.73,16.81,5.72,24.17,1.87,3.08,4.44,5.61,7.14,7.95,2.88,2.55,6.33,4.77,8.08,8.31,2.37,4.43,1.08,9.46-1.88,13.26-3.63,5.52-8.3,10.25-13.32,14.51,1.72,10.21,3.59,20.65,8.14,30.03,6.28,6.04,14.05,10.45,21.1,15.54ZM592.27,1236.69c1.37,1.3,2.71,2.64,4.04,4-6.83-21.32-15.44-42-22.2-63.35-5.89-17.14-10.41-34.71-15.75-52.02-4.11-14.13-7.85-28.37-11.15-42.71-7.54-28.11-17.47-55.49-26.07-83.29,4.8,21.12,7.87,42.6,13.4,63.54,4.72,17.28,10.23,34.33,15.04,51.59,6.82,23.32,10.7,47.36,16.09,71.02,2.89,12.95,5.89,26.11,11.13,38.3,4.94,4.57,10.61,8.25,15.47,12.91Z"/>
  <g>
    <path d="M363.68,522.99c-.17-.04-.34-.08-.51-.13,1.44-.85,2.85-1.75,4.24-2.69,2.29-1.6,4.48-3.3,6.59-5.14,1.92-1.73,3.73-3.56,5.44-5.5,1.5-1.76,2.89-3.6,4.19-5.51.24-.37.48-.74.71-1.11,1.09-.26,2.18-.52,3.26-.78,3.43-.84,6.91-1.52,10.31-2.49,7.12-2.03,14.1-4.62,21.02-7.24,4.55-1.72,8.98-3.76,13.46-5.66,4.46-1.89,8.86-4,13.16-6.23,2.19-1.14,4.34-2.36,6.5-3.57,2.02-1.13,4.09-2.19,6.11-3.32,2.25-1.27,4.45-2.61,6.57-4.06.73,1.12,1.45,2.24,2.16,3.37-.88.93-1.78,1.83-2.71,2.72-4.13,3.76-8.33,7.42-12.73,10.86-4.73,3.48-9.69,6.69-14.71,9.73-5.8,3.32-11.77,6.3-17.79,9.21-6.07,2.93-12.1,5.96-18.27,8.68-5.38,2.13-10.85,3.95-16.39,5.62-2.3.64-4.59,1.27-6.91,1.84-1.34.32-2.68.66-4.02.97-1.48.35-2.99.67-4.47,1.07-1.75-.15-3.48-.36-5.22-.64Z"/>
    <path d="M435.76,528.91c.12-.05.23-.11.35-.16-.38.18-.75.36-1.12.54.26-.12.52-.25.78-.38Z"/>
    <path d="M370.43,436.85c-.85-.73-1.7-1.44-2.57-2.13.4-.25.79-.5,1.19-.74,3.79-2.31,7.57-4.63,11.32-7,5.85-3.56,11.95-6.73,18.15-9.62,4.12-1.8,8.27-3.42,12.55-4.8.05.04.1.07.15.11,3.84,2.87,7.55,5.88,11.22,8.95.33.28.67.57,1,.85-.86.46-1.73.92-2.6,1.39-1.93,1.05-3.82,2.16-5.79,3.16-4.01,1.95-8.05,3.87-12.16,5.6-7.17,2.79-14.34,5.59-21.69,7.86-1.86.52-3.73.95-5.62,1.35-1.64-1.73-3.37-3.39-5.16-4.98Z"/>
    <path d="M92.38,1042.04c-5.57,17.03-10.36,34.29-15.85,51.35-7.14,23.22-17.14,45.42-25.67,68.14-4.71,12.4-9.45,25.04-11.79,38.11,1.61,6.54,4.32,12.73,5.81,19.3.43,1.84.8,3.7,1.17,5.56,6.04-21.55,10.23-43.56,16.34-65.11,4.52-17.55,10.41-34.71,15.49-52.11,4.35-14.06,9.06-28,14.2-41.79,9.18-27.62,15.96-55.95,24.09-83.88-7.62,20.27-16.88,39.89-23.8,60.43ZM35.2,1271.96c-3.18-2.58-5.33-6.09-7.27-9.64-4.84-9.07-8.38-18.74-12.4-28.19-9.24-23.18-20.21-33.43-13.41-60.11,3.48-14.48,8.25-28.63,12.2-43,4.56-15.01,9.6-29.87,13.45-45.08,10.75-35.7,20.84-71.57,30.45-107.61,4.75-15.58,9.96-31.02,15.1-46.48,4.4-13.05,9.7-25.76,14.08-38.81l.06-.18s0,0,0-.01c0-.02.01-.04.02-.06.01-.03.02-.06.03-.09,0-.02.01-.03.01-.04,0-.01,0-.02.01-.03s0-.02.01-.03c.02-.05.03-.09.05-.14,5.34-15.77,10.3-30.27,15.29-45.98,3.04-9.16,5.56-18.5,7.44-27.97.93-5.6,2.57-11.35,1.56-17.04-10.2-3.14-25.17-6.99-24.84-20.24.89-11.09,2.18-22.31,5.19-33.04-3.82-4.93-7.89-9.66-11.99-14.37-4.42-12.81-12.3-24.29-17.94-36.64-7.8-16.17-14.52-32.94-18.57-50.46-5.38-23.36-7.45-47.52-4.83-71.38,1.66-16.34,6.35-32.14,11.03-47.83,5.76-15.17,13.27-29.71,22.12-43.31,5.78-9.27,12.57-17.85,19.19-26.53,6.34-8.76,14.28-16.14,22.05-23.59,3.81-3.89,8.49-6.71,12.93-9.8,3.88-2.79,7.92-5.31,11.96-7.84.86-.66,1.72-1.32,2.6-1.97,1.98-1.46,3.99-2.91,6-4.34,2.08-1.48,4.21-2.87,6.34-4.27,1.77-1.16,3.57-2.3,5.39-3.4,4.07-2.45,8.18-4.85,12.39-7.04,2.27-1.18,4.56-2.34,6.86-3.48,2.21-1.1,4.48-2.1,6.73-3.12,1.96-.88,3.93-1.71,5.92-2.52,2.2-.9,4.41-1.8,6.65-2.62,2.44-.89,4.88-1.75,7.33-2.6,2.24-.77,4.5-1.44,6.76-2.13,2.09-.64,4.2-1.22,6.31-1.78,2.31-.61,4.63-1.23,6.97-1.76,4.08-.92,8.16-1.79,12.28-2.51.27-1.2,1.43-2.16,2.73-1.94.2-.01.4-.04.4-.05,2.12-.3,4.25-.62,6.37-.9,3.01-.39,6.04-.74,9.06-1.03,6.38-.61,12.78-.93,18.88-1,8.52-.09,17.04.16,25.52,1.02,8.37.84,16.7,2.12,24.91,3.93,2.52.55,5.02,1.15,7.52,1.8-2.73,1.47-5.44,2.98-8.13,4.53-9.84,5.66-19.19,12.01-28.18,18.94-7.6,5.86-14.65,12.38-21.61,18.97-1.42.42-2.82.88-4.22,1.35-3.39,1.22-6.71,2.6-9.87,4.15-.03.02-.05.03-.11.05-.13.07-.27.14-.35.18-2.78,1.4-5.47,2.98-8.07,4.71-.01,0-.02.01-.03.02-.29.2-.58.39-.87.59-2.33,1.61-4.55,3.38-6.41,5.03-1.87,1.69-3.62,3.48-5.31,5.36-1.47,1.72-2.87,3.5-3.94,5.09-.21.33-.43.66-.65.98-1.02,1.56-1.92,3.19-2.77,4.85-.93,1.93-1.75,3.89-2.47,5.91-.58,1.8-1.09,3.61-1.46,5.42-.01.05-.02.11-.04.16h0c0,.06-.02.11-.03.16,0,.01,0,.02,0,.04-.17.95-.33,1.9-.45,2.86-.12.96-.21,1.93-.28,2.9,0,.16-.01.32-.02.48-.7,1.04-1.39,2.09-2.08,3.13-3.6,5.47-6.79,11.14-9.74,16.98-4.79,9.49-10.24,18.64-14.28,28.5-2.05,5-4.09,10.04-5.8,15.18-1.65,4.98-3,10.02-4.38,15.07-2.91,10.61-6.61,21.04-8.73,31.86-2.12,10.82-3.41,21.77-4.07,32.79-.33,5.41-.48,10.77-.35,16.18.14,5.56.53,11.08,1.2,16.6,1.33,10.96,2.4,21.96,4.27,32.84.95,5.52,2.36,10.98,3.8,16.38,1.39,5.22,2.92,10.42,4.81,15.48,3.84,10.27,8.5,20.29,13.27,30.16,2.36,4.87,4.83,9.77,7.81,14.3,3.16,4.8,6.35,9.64,10.21,13.91,7.59,8.4,15.66,16.45,23.95,24.16,3.87,3.6,7.9,7.02,11.77,10.61,4.05,3.75,8.1,7.46,12.34,11,4.21,3.51,8.67,6.7,13.2,9.76,4.52,3.06,9.2,5.87,13.76,8.88,1.21.81,2.41,1.64,3.61,2.46-.88,2.13-1.73,4.27-2.6,6.4-2.1,5.55-5.31,11.97-11.92,12.68-4.49.8-9.05.29-13.53-.2-.7-.06-1.4-.03-1.91.52-3.38,3.26-5.13,7.82-7.36,11.88-2.6,5.47-4.41,11.27-5.81,17.16-3.18,16.55,7.04,33.46-14.38,40.82-3.41,7.87-5.84,16.11-8.58,24.22-1.83,5.69-4.21,11.19-5.72,16.98-1.89,10.62-1.24,21.48-2.33,32.19-.96,8.52-.61,20.31-9.95,24.21-4.55,1.86-9.64.64-14.19,2.35-1.12.7-1.51,2.12-2.17,3.2-2.46,5.1-4.72,10.27-6.66,15.59-2.02,6.07-3.08,12.39-3.52,18.77-.8,6.41,2.68,18.13-4.55,21.25-1.87.73-3.85.77-5.81.98-2.79.77-5.8,1.21-8.58,2.17,0,.05,0,.1-.02.15-.19,1.54-.81,2.87-1.52,4.23-2.18,4.48-4.16,9.07-6.45,13.5-3.38,7.5-7.81,14.98-8.53,23.32-.13,3.6.62,7.12,1.59,10.57,1,3.71,2.66,7.47,2.17,11.39-.46,5-4.3,8.49-8.87,10.04-6.07,2.61-12.57,3.99-19.11,4.78-4.18,9.47-8.37,19.22-9.73,29.55,1.92,8.5,5.98,16.45,9.05,24.59,2.32,7.13-1.27,11.79-5.86,16.78-10.51,12.94-23.67,23.32-38.07,31.61-9.77,6.04-22.29,12.51-34.16,12.51-6.03,0-11.89-1.67-17.13-5.91Z"/>
  </g>
</svg>