<?xml version="1.0" encoding="UTF-8"?>
<svg id="Layer_1" data-name="Layer 1" xmlns="http://www.w3.org/2000/svg" viewBox="0 0 809.43 1447.6">
  <path d="M424.01,506.81c-.56.06-1.18-.05-1.68-.16-6.54-2.08-12.04-8.94-13.33-15.6-.98-5.58,2.83-11.84,7.98-13.95.59-.15,1.13.02,1.54.36,1.11-.36,2.23-.68,3.35-1.02,2.45-.74,4.89-1.51,7.31-2.33,4.65-1.57,9.21-3.38,13.7-5.31,1.31-.57,2.62-1.14,3.92-1.72.25.09.51.14.77.14.5,0,1-.17,1.38-.54,1.51-.84,3.09-1.57,4.62-2.39,1.54-.82,3.08-1.65,4.64-2.45,1.52-.77,3.03-1.55,4.5-2.43.18-.11.37-.22.55-.33,4.07-2.14,8.07-4.32,11.82-6.54,8.14-4.85,15.98-10.18,23.45-16.01,7.41-5.81,14.44-12.08,20.81-18.52,6.78-6.89,13.1-14.2,18.73-21.62,3.03-4.04,5.94-8.16,8.7-12.38,2.57-3.92,4.99-7.93,7.27-11.95,4.73-8.43,8.91-17.14,12.46-25.93.04-.09.07-.19.11-.29v-.02c1.8-4.54,3.48-9.12,4.97-13.77,1.5-4.67,2.85-9.39,4.04-14.06l.05-.19v-.05c2.28-9.2,3.96-18.52,5.05-27.75.01-.11.02-.22.04-.33h0c.5-4.57.87-9.14,1.11-13.73.26-4.98.31-9.97.23-14.96-.21-9.5-.98-18.99-2.36-28.04-.05-.38-.11-.75-.17-1.11-1.42-8.96-3.37-17.82-5.81-26.46-1.31-4.54-2.77-9.03-4.35-13.48-1.64-4.63-3.49-9.18-5.43-13.7-1.85-4.15-3.79-8.25-5.85-12.3-2.04-3.99-4.24-7.89-6.49-11.77-2.45-4.08-4.98-8.11-7.68-12.03-1.48-2.15-3-4.28-4.54-6.39-1.36-1.86-2.79-3.68-4.2-5.51-2.89-3.61-5.84-7.16-8.93-10.6-3.11-3.46-6.33-6.8-9.63-10.08-3.15-3.04-6.35-6.03-9.66-8.9-3.32-2.88-6.71-5.68-9.95-8.13-.75-.57-1.5-1.14-2.25-1.7-3.64-2.68-7.33-5.31-11.12-7.77-3.81-2.47-7.68-4.82-11.62-7.09-4.22-2.36-8.5-4.61-12.86-6.71-4.25-2.06-8.59-3.94-12.97-5.73-4.32-1.71-8.68-3.35-13.11-4.79-4.73-1.54-9.5-2.93-14.29-4.18-5.01-1.25-10.04-2.36-15.12-3.29-5.03-.92-10.09-1.62-15.1-2.2-.02,0-.05,0-.07,0h-.05c-4.82-.5-9.65-.88-14.5-1.1-5.06-.23-10.12-.25-14.84-.16-2.19.06-4.39.12-6.58.25-2.46.14-4.92.32-7.37.52-4.69.38-9.35.99-13.68,1.62-4.52.7-9.02,1.49-13.49,2.48-4.54,1-9.04,2.14-13.51,3.39-4.3,1.25-8.57,2.59-12.8,4.07-4.35,1.52-8.63,3.22-12.88,5-1.99.86-3.98,1.73-5.94,2.65-2.24,1.04-4.46,2.12-6.67,3.22-4.09,2.04-8.07,4.28-11.77,6.41-4.09,2.45-8.14,4.95-12.07,7.64-2.08,1.42-4.14,2.87-6.18,4.35-1.84,1.34-3.64,2.71-5.21,3.92-1.82,1.44-3.62,2.87-5.4,4.36-1.89,1.58-3.75,3.19-5.6,4.81-3.5,3.08-6.85,6.33-10.14,9.63-1.51,1.55-3.02,3.11-4.49,4.7-1.62,1.75-3.21,3.53-4.79,5.32-3.12,3.54-6.05,7.23-8.93,10.97-2.99,3.97-5.88,8.01-8.61,12.17-2.87,4.36-5.55,8.82-8.13,13.36-2.2,3.97-4.32,7.99-6.26,12.09-2.05,4.3-3.95,8.66-5.75,13.05-.93,2.38-1.84,4.76-2.72,7.16-.84,2.31-1.61,4.65-2.39,6.98-1.55,4.7-2.84,9.48-4.08,14.28-.3,1.28-.61,2.55-.91,3.84-.31,1.3-.57,2.61-.85,3.91-.51,2.33-.94,4.67-1.36,7.02-.86,4.75-1.48,9.54-2.05,14.34-.45,4.48-.84,8.97-1.03,13.47-.11,2.47-.18,4.94-.22,7.41-.04,2.16-.01,4.33.01,6.5.12,4.83.3,9.66.74,14.48.23,2.59.5,5.18.79,7.76.27,2.33.61,4.64.93,6.88,0,.05.02.09.02.14v.04c.71,4.4,1.5,8.78,2.45,13.13.96,4.42,2.07,8.79,3.29,13.15,1.35,4.65,2.79,9.27,4.43,13.83.88,2.46,1.8,4.9,2.76,7.32.86,2.19,1.78,4.35,2.71,6.52.96,2.15,1.93,4.29,2.93,6.42,1,2.14,2.07,4.24,3.14,6.34,2.08,4.09,4.35,8.08,6.69,12.03,2.41,3.96,4.89,7.88,7.52,11.7,2.55,3.72,5.24,7.34,8.01,10.91,1.89,2.38,3.81,4.72,5.78,7.03-.5.25-1,.51-1.49.77-5.27,2.88-10.31,6.02-15.27,9.39-4.27,2.91-8.49,6.05-12.4,9.42-1.17,1.01-2.33,2.03-3.48,3.08-9-10.31-17.19-21.32-24.5-32.9-5.62-8.91-10.65-18.19-15.17-27.71-4.45-9.39-8.23-19.09-11.52-28.94-3.43-10.29-6.11-20.83-8.2-31.46-2-10.26-3.33-20.68-4.01-31.11-.35-5.36-.57-10.74-.59-16.12,0-5.46.14-10.91.43-16.36.26-5.05.71-10.11,1.32-15.13.67-5.61,1.48-11.19,2.48-16.75,1.86-10.32,4.35-20.54,7.43-30.55,3.05-9.94,6.68-19.73,10.96-29.21,4.4-9.75,9.36-19.23,14.92-28.38,2.71-4.47,5.56-8.87,8.55-13.16,3.23-4.61,6.59-9.12,10.08-13.55,6.64-8.42,13.9-16.37,21.56-23.87,7.5-7.35,15.46-14.27,23.82-20.63,7.86-5.98,16.02-11.57,24.47-16.58.54-.32,1.09-.64,1.6-.95,9.11-5.41,18.6-10.13,28.3-14.39,9.86-4.32,20.03-7.87,30.34-10.92,10.34-3.06,20.9-5.36,31.54-7.09,10.43-1.7,20.98-2.73,31.54-3.09,10.71-.37,21.45-.14,32.12.86,10.67,1,21.3,2.54,31.77,4.85,5.32,1.18,10.62,2.45,15.86,3.96,5.12,1.48,10.2,3.07,15.23,4.84,10.09,3.55,19.98,7.71,29.54,12.52,9.22,4.63,18.2,9.79,26.8,15.5,4.45,2.96,8.81,6.04,13.09,9.23,4.35,3.25,8.56,6.67,12.7,10.19,8.05,6.85,15.63,14.27,22.76,22.07,7.09,7.76,13.71,15.98,19.79,24.56,6.04,8.52,11.61,17.41,16.55,26.61,2.49,4.63,4.89,9.32,7.08,14.11,2.36,5.14,4.57,10.34,6.64,15.6,3.39,8.67,6.21,17.55,8.65,26.53,2.43,8.93,4.34,18.03,5.73,27.18h0s0,.01,0,.01c.02.11.04.23.05.34.02.14.04.29.07.43.04.24.09.48.11.72.04.22.06.44.09.66.09.61.18,1.21.26,1.82.18,1.28.35,2.55.51,3.83.31,2.54.59,5.08.83,7.63.95,10.12,1.29,20.3,1.07,30.46-.11,4.96-.38,9.92-.79,14.87-.19,2.32-.41,4.63-.66,6.95-.05.46-.07.95-.15,1.41-.03.27-.07.53-.1.8-.07.61-.14,1.22-.22,1.84-.16,1.3-.33,2.6-.52,3.9-.7,4.95-1.52,9.88-2.52,14.78-2.03,10.04-4.6,19.99-7.81,29.72-3.23,9.8-7.03,19.4-11.37,28.77-8.54,18.43-19.38,35.78-32,51.69-12.56,15.84-27.09,30.09-43.02,42.53-7.78,6.08-15.96,11.7-24.45,16.73-8.29,4.91-16.87,9.34-25.66,13.3-7.64,3.44-15.43,6.46-23.38,9.12-4.09,1.37-8.22,2.64-12.37,3.81-2.02.57-4.04,1.11-6.07,1.62-.8.2-1.6.39-2.41.56-.32.07-.65.12-.97.2-.07.02-.14.02-.21.02-.34,0-.65-.19-.83-.48Z"/>
  <path d="M505.98,830.94s0,0,0,.01h0c.06.11.12.22.18.32.01.04.02.07.04.11.84,2.4,1.62,4.82,2.41,7.23.86,2.66,1.76,5.3,2.62,7.95,1.68,5.14,3.31,10.29,4.92,15.45,3.31,10.64,6.48,21.31,9.67,31.98,6.29,21.12,12.67,42.21,18.97,63.32,6.79,22.7,13.48,45.44,20.14,68.18,3.43,11.71,6.84,23.43,10.24,35.14,3.27,11.26,6.51,22.52,9.79,33.78,3.27,11.23,6.53,22.46,9.82,33.69,3.25,11.05,6.51,22.09,9.77,33.14,6.49,21.99,12.96,43.99,19.44,65.98,6.37,21.61,12.78,43.21,18.91,64.88,2.93,10.36,5.86,20.72,8.75,31.1,1.39,4.99,2.82,9.96,4.25,14.94,1.43,5,2.86,9.99,4.3,14.99,2.5,8.66,4.98,17.33,7.46,26,.67,2.34,1.34,4.68,2.02,7.01.66,2.27,1.35,4.54,1.99,6.81.21.74.46,1.46.7,2.19.11.33.07.68-.07.98,4.07,5.61,9.48,10.27,14.54,14.96,3.8,3.6,7.54,7.26,11.27,10.64,4.07,3.54,7.99,6.85,12.07,9.43-2.27-2.37-4.57-4.61-7.02-6.8-5.23-4.71-10.79-9.07-15.77-14.04-4.28-4.41-8.89-8.58-12.43-13.62-.45-.66.09-1.39.71-1.5-.67-1.92-1.26-3.88-1.86-5.82-1.62-5.32-3.22-10.65-4.84-15.97-3.04-10.05-6.05-20.1-9.04-30.16-3.09-10.41-6.19-20.83-9.29-31.24-3.14-10.56-6.27-21.13-9.41-31.7-3.2-10.77-6.39-21.55-9.58-32.33-1.61-5.46-3.21-10.93-4.82-16.39-1.54-5.21-3.08-10.41-4.6-15.63-6.14-21.04-12.3-42.07-18.39-63.13-2.93-10.12-5.83-20.25-8.77-30.36-3.09-10.61-6.18-21.21-9.29-31.82-3.16-10.8-6.36-21.59-9.51-32.39-3.12-10.69-6.24-21.39-9.36-32.08-3.01-10.3-6.01-20.6-9.07-30.88-3.18-10.69-6.36-21.38-9.59-32.05-6.19-20.43-12.36-40.86-18.27-61.37-1.43-4.98-2.86-9.96-4.3-14.94-1.29-4.47-2.63-8.91-3.98-13.36-1.49-4.88-2.98-9.77-4.46-14.65-1.29-4.25-2.56-8.49-3.79-12.75-.61-2.11-1.2-4.21-1.79-6.32-.66-2.36-1.37-4.71-2.04-7.07-.47-1.66-.94-3.32-1.4-4.98-.23-.82-.45-1.65-.67-2.48-.1-.38-.2-.76-.29-1.14-.06-.26-.09-.52-.15-.78-.03-.09-.05-.17-.06-.26-3.31.86-6.42,2-9.75,2.48-6.42.79-12.91.9-19.37.79h.14c-5.64.04-11.55-1.24-15.67-5.34-3.79-4.8-7.76-10.34-8.43-16.53-.51-.14-1.02-.29-1.53-.44.44,1.13.86,2.28,1.25,3.44,3.54,8.73,4.99,17.7,15.8,19.53,8.61,1.54,17.44,1.12,26.07-.02.39-.05.79-.1,1.18-.15.06.03.12.04.2.04.08,0,.15,0,.22.02.09.01.18.03.27.04.12.02.24.02.36.02.15,0,.3,0,.44-.02.15,0,.3-.02.45-.04h0c.14,0,.28,0,.42,0,.2.01.39.04.58.07s.38.07.57.11c.18.04.37.06.55.09.16.02.3.05.46.08.12.04.25.07.37.11.12.04.24.07.36.11.19.06.37.13.55.2.2.08.39.18.58.27t0,0c.23.13.46.26.68.41.06.04.12.09.18.13h0c.07.05.14.11.21.16.02.01.03.02.04.03.12.09.23.19.34.29.02.01.03.02.04.04.01.01.02.02.04.03h0s.05.06.07.09.04.05.07.08h0s0,0,0,0c.15.21.29.42.42.64.07.11.13.23.21.33.07.1.14.19.22.28h0s0,0,0,.01l.04.05s.02.03.04.04h0c.07.1.14.2.21.31ZM566.05,875.53c.29.12.5.38.57.7.05.21.1.43.15.63.07.28.18.56.25.84.1.35.19.7.27,1.04v.05s.02,0,.02,0c.18.69.36,1.38.51,1.95.22.87.49,1.72.75,2.58.29.95.59,1.9.87,2.85.56,1.88,1.12,3.76,1.67,5.64.77,2.6,1.51,5.21,2.27,7.81.77,2.66,1.56,5.32,2.35,7.98.87,2.95,1.72,5.9,2.54,8.86.93,3.38,1.88,6.75,2.83,10.12.95,3.39,1.9,6.77,2.86,10.16,1.03,3.65,2.09,7.29,3.16,10.94,2.87,9.85,5.72,19.7,8.55,29.56,1.5,5.23,3,10.46,4.5,15.7,1.34,4.71,2.66,9.43,4.02,14.14,1.34,4.69,2.69,9.37,4.03,14.06,1.43,5,2.84,10.01,4.25,15.02,3.02,10.7,6.04,21.41,9.07,32.11,5.73,20.21,11.57,40.38,17.42,60.55,6.11,21.07,11.99,42.21,18,63.31,2.91,10.21,5.8,20.43,8.73,30.64,3.02,10.55,6.07,21.11,9.12,31.65,5.85,20.21,11.63,40.43,17.43,60.66,2.73,9.51,5.49,19.02,8.22,28.53,2.61,9.09,5.16,18.19,7.68,27.3,1.26,4.54,2.51,9.07,3.78,13.6,1.39,4.96,2.79,9.93,4.16,14.9,2.86,10.4,5.8,20.78,8.72,31.16.44,1.57.88,3.13,1.32,4.7.1.37.2.74.3,1.11,1.45,0,2.96-.1,4.52-.34-.19-.46-.33-.93-.49-1.4-.75-2.25-1.43-4.52-2.11-6.78-1.49-4.91-3.03-9.8-4.5-14.71-1.36-4.5-2.7-9.02-4.04-13.52-1.32-4.45-2.62-8.91-3.98-13.34-1.22-3.97-2.48-7.93-3.67-11.91-1.38-4.59-2.73-9.2-4.07-13.8-2.96-10.11-5.97-20.21-8.93-30.33-6.13-20.95-12.09-41.96-18.1-62.95-3.1-10.82-6.15-21.65-9.24-32.48-3.06-10.72-6.11-21.45-9.16-32.18-6.2-21.77-12.46-43.52-18.66-65.29-6.06-21.27-12.11-42.53-18.14-63.8-3.08-10.88-6.12-21.76-9.22-32.62-3-10.51-6.02-21.01-9-31.52-3.01-10.58-5.95-21.18-8.94-31.77-2.86-10.09-5.74-20.18-8.58-30.27-1.32-4.7-2.66-9.4-3.99-14.1-1.34-4.75-2.71-9.48-4.06-14.23-2.2-7.73-4.42-15.45-6.52-23.21-1.05-3.9-2.12-7.8-3.22-11.69-.54-1.9-1.08-3.8-1.61-5.7-.14-.52-.29-1.04-.44-1.56-.16-.31-.25-.71-.31-1.12-.25-.92-.5-1.85-.71-2.78,0-.02,0-.04-.01-.05-.11-.36-.26-.72-.37-1.08-.12-.4-.24-.8-.36-1.21-.02-.09-.04-.17-.04-.26-.46-1.4-.96-2.8-1.43-4.2.38,2.9,1.16,5.72,1.83,8.57.04,1.07,1.69,4.4.02,4.55-.24,0-.48-.11-.63-.32-1.23-2.3-2.02-4.77-3.11-7.09.33,1.21.62,2.41.94,3.61ZM724.25,1441.31c-3.73-.05-7.25-.99-10.55-2.49-1.38.01-2.55,0-3.16.05-9.13.1-17.32-4.92-24.26-10.4-4.88-3.71-9.6-7.64-14.05-11.87-9.46-8.87-14.84-13.51-17.71-26.75-.41-1.33.6-2.27,1.65-2.34-1.38-4.2-2.79-8.39-4.17-12.58-1.53-4.62-3.12-9.23-4.68-13.85-1.64-4.85-3.23-9.72-4.8-14.59-1.43-4.43-2.84-8.88-4.25-13.32-1.25-3.95-2.52-7.9-3.74-11.86-2.91-9.38-5.76-18.79-8.59-28.19-3.12-10.38-6.21-20.76-9.28-31.15-3.14-10.64-6.21-21.3-9.33-31.95-3.05-10.42-6.12-20.83-9.21-31.23-3.19-10.76-6.42-21.51-9.6-32.27-3.15-10.66-6.29-21.31-9.5-31.95-3.19-10.57-6.41-21.13-9.63-31.69-3.18-10.41-6.35-20.83-9.51-31.25-3.18-10.47-6.43-20.93-9.66-31.39-3.2-10.36-6.29-20.74-9.46-31.11-1.59-5.21-3.22-10.42-4.79-15.64-1.48-4.9-2.91-9.81-4.37-14.71-2.88-9.7-5.71-19.42-8.62-29.12-3.05-10.18-6.14-20.36-9.19-30.54-3.11-10.38-6.15-20.77-9.27-31.14-1.59-5.3-3.18-10.6-4.75-15.9-.75-2.55-1.52-5.09-2.31-7.63-.48-1.54-.97-3.09-1.4-4.65-.13-.48-.26-.96-.36-1.45-.07-.34-.12-.67-.15-.95-.03-.23-.08-.46-.08-.49-.3-1.16-.68-2.3-1.05-3.45-.17-.55-.35-1.09-.52-1.64-.15-.46-.36-.98-.4-1.48-.04.02-.09.04-.13.06-4.82,1.7-10.04,1.81-15.1,1.84-6.98-.06-14.33-1.97-20.54-5.15-3.79-2.53-6.77-6.18-9.38-9.89-3.82-5.81-6.53-12.39-11.52-17.31-11.86-13.14-28.8-19.16-43.5-28.35-15.41-9.21-30.25-19.51-43.28-31.91-17.35-16.54-32.38-35.57-43.33-56.93-7.61-14.55-12.39-30.33-17.12-46-3.54-15.84-5.27-32.11-5.38-48.34-.28-10.92.67-21.82,1.42-32.71.46-10.8,3.03-21.33,5.42-31.84,1.04-5.35,3.39-10.27,5.4-15.3,1.7-4.46,3.69-8.79,5.67-13.12.35-1.03.71-2.05,1.08-3.07.85-2.32,1.73-4.62,2.62-6.93.92-2.38,1.93-4.71,2.94-7.05.84-1.95,1.71-3.89,2.63-5.8,2.05-4.29,4.16-8.55,6.46-12.7,1.25-2.24,2.52-4.46,3.81-6.68,1.25-2.13,2.58-4.22,3.9-6.3,1.15-1.81,2.34-3.59,3.55-5.36,1.34-1.96,2.69-3.93,4.11-5.85,1.55-2.08,3.11-4.15,4.69-6.2,1.45-1.87,2.96-3.68,4.47-5.5,1.39-1.68,2.83-3.33,4.29-4.96,1.59-1.79,3.19-3.58,4.85-5.3,2.9-3.02,5.83-5.98,8.87-8.86-.44-1.15,0-2.59,1.21-3.12.16-.12.31-.26.31-.26,1.61-1.42,3.2-2.86,4.82-4.26,2.3-1.99,4.63-3.94,7-5.84,4.99-4.02,10.15-7.81,15.21-11.23,7.06-4.77,14.31-9.24,21.86-13.2,7.45-3.91,15.11-7.42,22.96-10.43,16.79-6.44,34.35-10.81,52.18-13.11,9.35-1.21,18.75-1.75,28.18-1.82,4.62-.04,9.24.14,13.85.41,4.78.28,9.54.75,14.29,1.3.43.05.87.1,1.3.16-.47.86-.94,1.72-1.4,2.59-1.04,1.94-2,3.91-3.09,5.82-2.27,3.84-4.59,7.66-7.07,11.37-4.45,6.27-8.9,12.56-13.79,18.5-1.27,1.45-2.59,2.85-3.95,4.22-2.33-.54-4.68-.98-7.05-1.32-3.74-.48-7.49-.73-11.03-.76-3.95,0-7.87.25-11.44.68-4.39.55-8.75,1.36-12.95,2.43l-.3.08c-4.49,1.18-8.93,2.59-12.92,4.19l-.2.08c-3.15,1.27-6.25,2.66-9.28,4.21-.5.25-1.05.32-1.58.23-.58.32-1.16.64-1.68.93-.04.02-.08.05-.12.07l-.05.03c-2.17,1.25-4.3,2.56-6.41,3.93-2.1,1.36-4.14,2.82-5.96,4.19-.07.05-.15.11-.22.17h0c-3.84,2.93-7.48,6.08-10.93,9.46-1.52,1.52-3.02,3.08-4.44,4.7-1.54,1.75-3.02,3.55-4.45,5.39-2.16,2.88-4.17,5.86-5.95,8.9-.02.03-.03.05-.06.11-.07.13-.15.27-.2.35-1.55,2.7-2.93,5.5-4.14,8.37,0,.01-.01.02-.01.03-.13.32-.27.65-.4.97-1.06,2.62-1.93,5.32-2.58,7.73-.63,2.44-1.11,4.9-1.48,7.4-.28,2.24-.47,4.5-.49,6.42,0,.39,0,.79,0,1.18,0,1.86.15,3.73.36,5.57.29,2.12.68,4.21,1.2,6.29.51,1.82,1.08,3.62,1.77,5.33.02.05.04.1.06.16h0c.02.06.04.11.05.15,0,.01.01.02.02.04.38.89.77,1.77,1.2,2.64.43.87.89,1.73,1.36,2.58.96,1.61,1.99,3.16,3.09,4.68.62.81,1.26,1.61,1.93,2.38.7.82,1.44,1.6,2.19,2.38.79.77,1.58,1.54,2.42,2.27.88.76,1.77,1.49,2.68,2.2,1.84,1.36,3.73,2.61,5.7,3.77,2.34,1.31,4.74,2.47,7.21,3.5,2.64,1.04,5.31,1.92,8.05,2.66,2.81.71,5.64,1.3,8.52,1.7.25.04.5.07.75.1.02,0,.05,0,.07,0,3.54.43,7.08.65,10.64.68,3.86-.03,7.69-.26,11.51-.71,4.18-.54,8.34-1.3,12.37-2.32,2.4-.62,4.79-1.29,7.14-2.07,2.26-.75,4.5-1.56,6.72-2.43,4.68-1.91,9.22-4.07,13.31-6.36,2.2-1.25,4.35-2.56,6.47-3.93s4.17-2.86,5.91-4.14c3.89-2.96,7.57-6.16,11.05-9.6,3.04-3.09,5.88-6.34,8.53-9.78,2.09-2.8,4.03-5.7,5.62-8.41.23-.4.46-.8.64-1.14,1.54-2.72,2.89-5.55,4.09-8.44,1.03-2.6,1.92-5.23,2.67-7.92.65-2.5,1.15-5.02,1.51-7.58.29-2.3.44-4.6.46-6.91,0-.44,0-.88-.02-1.32.77-.82,1.53-1.63,2.29-2.45,2.41-2.59,4.93-5.07,7.24-7.75,4.89-5.69,9.34-11.79,13.74-17.86-.06.08-.12.16-.18.25,2.86-3.94,5.43-8.08,8.12-12.14,2.68-4.03,5.19-8.21,7.55-12.44,1.2-2.16,2.33-4.36,3.46-6.56,1.07-2.06,2.21-4.08,3.27-6.14,1.18-2.3,2.29-4.63,3.25-7.01,2.57,1.11,5.12,2.28,7.65,3.48,2.09.99,4.16,2.02,6.21,3.08,2.03,1.05,4.07,2.1,6.06,3.22,2.18,1.23,4.36,2.47,6.52,3.74,2.12,1.24,4.2,2.57,6.27,3.89,1.91,1.21,3.77,2.48,5.64,3.75,1.81,1.23,3.61,2.49,5.37,3.79,3.17,2.33,6.32,4.7,9.35,7.2,3.22,2.65,6.43,5.32,9.49,8.15,3.01,2.77,5.99,5.57,8.85,8.49,1.6,1.64,3.18,3.3,4.76,4.96,1.48,1.57,2.91,3.2,4.32,4.8.33.38.66.75.99,1.12,3.07,3.5,5.96,7.14,8.79,10.84,2.84,3.71,5.59,7.52,8.17,11.42,1.33,2.02,2.64,4.05,3.93,6.09,1.32,2.09,2.57,4.23,3.83,6.37,2.35,3.99,4.47,8.11,6.57,12.23,2.23,4.39,4.23,8.9,6.17,13.43,1.89,4.43,3.55,8.96,5.15,13.5,1.62,4.58,3,9.23,4.32,13.9,1.29,4.55,2.34,9.16,3.33,13.78.99,4.61,1.76,9.26,2.46,13.92.7,4.59,1.15,9.22,1.56,13.84.42,4.7.59,9.43.72,14.14.07,2.27.07,4.55.03,6.81-.05,2.41-.09,4.8-.2,7.21-.22,4.74-.54,9.48-1.07,14.19-.52,4.66-1.11,9.32-1.93,13.94-.45,2.5-.88,5-1.41,7.49-.52,2.47-1.07,4.93-1.64,7.39-1.09,4.7-2.44,9.33-3.84,13.94-2.8,9.24-6.36,18.25-10.34,27.04-.94,2.07-1.93,4.13-2.95,6.17-1.05,2.1-2.1,4.2-3.22,6.27-.59,1.09-1.19,2.18-1.79,3.27-.85,1.88-1.69,3.77-2.48,5.67-6.73,14.32-10.06,29.98-12.26,45.54-.7,13.47-.32,27.16,1.95,40.48,1.75,8.63,4.79,16.93,6.71,25.52,1.5,6.35,2.74,12.77,4.03,19.1,0,0,0,.02,0,.04,1.14,5.57,2.71,11.04,4.29,16.5,1.63,5.44,2.66,11.44.33,16.84-.8,1.79-2.22,4-4.17,4.66.07.22.1.46.09.7.11,5.23-1,10.54-4.5,14.58-5.43,5.41-6.16,11.82-5,19.08,2.31,17.33,10.02,33.42,12.98,50.6,3.09,18.39-17.52,24.15-8.58,51.05,2,6.05,5.03,11.72,8.89,16.79,4.91,6.52,13.53,12.72,6.98,21.38-3.01,4.29-6.2,8.78-6.38,14.21-.53,9.37.8,19.09,2.21,28.29,2.05,11.57,5.51,18.94,18.36,19.77,1.9.15,3.89,1.4,3.84,3.5-.35,2.86-2.87,4.93-4.33,7.3-3.67,5.02-7.43,9.98-11.03,15.05-1.08,1.53-2.1,3.74-2.12,5.43-.02,5.66,1.57,11.82,2.49,17.22,2.39,11.7,5.65,25.48,17.21,31.34,15.66,7.29,32.62,16.93,38.09,34.45,2.93,8.18,3.2,17.64,9.3,24.35,3.85,4.3,11.15,7.79,8.98,14.65-4.97,17.3-10.79,22.68-7.84,42.21.89,6.27,1.79,12.82,5.21,18.27,3.72,6.09,13.02,8.02,14.08,15.71.07,3.54-2.07,6.62-3.49,9.75-5.73,10.78-13.71,20.08-20.6,30.1-6.57,10.09-12.52,20.57-19.71,30.25-13.04,16.01-15.5,34.2-39.43,34.2-.64,0-1.29-.02-1.95-.04Z"/>
  <g>
    <path d="M278.69,622.31s0,.04,0,.05c0,.07.02.14.03.21-.01-.09-.02-.17-.04-.26Z"/>
    <path d="M289.59,676.37c.02.05.04.1.06.15,0,.01,0,.02.01.03-.02-.06-.05-.12-.07-.19Z"/>
    <path d="M289.81,676.98s0,0,0-.01c0,0,0,0,0,.01,0,0,0,0,0,0Z"/>
    <path d="M289.94,677.31s0,0,0-.01c0,0,0,0,0,.01,0,0,0,0,0,0Z"/>
    <path d="M289.74,676.79c.02.06.04.11.07.17,0,0,0,0,0,0,0,0,0,0,0,.01.01.03.02.06.03.09,0-.02-.02-.04-.02-.07,0,0,0,0,0,0,0,0,0,0,0,0,0,0,0-.01,0-.02,0,0,0,0,0,0,0,0,0,0,0-.01,0,0,0,0,0,0h0s0,0,0,0c0,0,0,0,0,0,0,0,0,0,0,0,0,0,0,.02,0,.02.02.05.04.11.06.16.02.04.03.08.05.13-.03-.07-.05-.14-.08-.21.03.07.05.14.08.21,0,.01,0,.03.01.04,0,0,0,0,0,.01-.07-.18-.13-.36-.2-.54Z"/>
    <path d="M289.94,677.33s0-.01,0-.02c0,.02.01.03.02.05,0-.01,0-.02-.01-.04Z"/>
    <path d="M289.98,677.43s-.03-.07-.04-.1c0,0,0,0,0,0,0,.01,0,.03.02.04,0,.02.01.04.02.05Z"/>
    <path d="M289.98,677.44s0,0,0,0c0,0,0,0,0,0Z"/>
    <path d="M289.99,677.47s0,0,0,0c.02.06.04.12.06.17-.02-.06-.04-.11-.06-.17Z"/>
    <polygon points="320.36 732.24 320.36 732.24 320.36 732.25 320.36 732.24"/>
    <polygon points="320.36 732.25 320.36 732.25 320.36 732.25 320.36 732.25"/>
    <path d="M320.36,732.25c.05.06.09.13.14.19,0,0,0,0,0,0-.05-.06-.09-.13-.14-.19Z"/>
    <path d="M320.5,732.44s0,0,0,0c0,0,0,0,.01.01,0,0,0,0,0,0,0,0,0,0,0,0,.02.02.03.04.05.07-.02-.03-.04-.05-.06-.08Z"/>
    <path d="M320.62,732.61s0,0,0,.01c0,0,0,.01.01.02,0-.01-.02-.02-.02-.03Z"/>
    <path d="M320.65,732.65s-.01-.02-.02-.03c-.04-.06-.08-.11-.12-.16,0,0,0,0,0,0,.05.07.11.15.16.22,0,0-.01-.02-.02-.02Z"/>
    <path d="M320.68,732.68s0,0,0,0c0,0,.01.02.02.03,0,0,0-.01-.01-.02Z"/>
    <path d="M320.74,732.77s-.03-.04-.04-.05c0,0,0,0,0,0,0,0,0,0,0,0,0,0,0,0,0,.01.01.02.03.04.04.06,0,0,0,0,0,0Z"/>
    <path d="M320.74,732.77s0,0,0,0c0,0,0,0,.01.01,0,0,0,0,0-.01Z"/>
    <path d="M320.73,732.76s0,0,0,0c0,0,0,0,0,0,.02.03.05.07.07.1.01.02.02.03.03.04-.04-.05-.08-.11-.12-.16Z"/>
    <path d="M345.92,761.08s.03.03.05.04c-.02-.01-.03-.03-.05-.04Z"/>
    <path d="M345.99,761.14s0,0,0,0c0,0,0,0,0,0,0,0,0,0-.01-.01Z"/>
    <path d="M346.01,761.16s.01.01.02.02c0,0-.01-.01-.02-.02Z"/>
    <path d="M346.02,761.17s0,0,0,0c0,0,0,0,0,0Z"/>
    <path d="M346.03,761.17s.02.02.04.03c.02.02.04.04.06.06-.03-.03-.07-.06-.1-.09Z"/>
    <path d="M332.33,775.03s-.01-.01-.02-.02c0,0,.02.02.03.02,0,0,0,0,0,0Z"/>
    <path d="M332.34,775.04s.01,0,.02.01c0,0-.01,0-.02-.01Z"/>
    <path d="M332.42,775.11s-.04-.04-.06-.06c.02.02.05.04.07.06,0,0,0,0,0,0Z"/>
    <path d="M381.77,789.92c.08.06.15.11.23.17-.08-.06-.15-.11-.23-.17Z"/>
    <path d="M382.17,790.23c-.33-.25-.65-.49-.98-.74.12.09.24.18.37.28.07.05.14.1.21.16.08.06.15.11.23.17.07.05.14.11.22.16,0,0,0,0,0,0-.01-.01-.03-.02-.04-.03Z"/>
    <path d="M382.24,790.28s.02.01.03.02c.1.07.2.15.29.22-.11-.08-.21-.16-.32-.24Z"/>
    <path d="M357.15,795.13c-.11-.09-.23-.18-.34-.28-.06-.05-.11-.09-.17-.14.18.15.37.3.55.45-.02-.01-.03-.02-.05-.04Z"/>
    <path d="M289.56,676.3s0-.03-.01-.04c0,0,0,.01,0,.02,0,0,0,.02,0,.03,0,0,0,.02.01.03,0,.02.02.04.02.07-.01-.03-.02-.06-.04-.09Z"/>
    <path d="M368.45,779.24s-.06-.05-.09-.08c.02.01.03.03.05.04.02.01.03.03.05.04Z"/>
    <path d="M379.25,401.89s-.03.02-.05.04c.02-.01.03-.02.05-.04Z"/>
    <path d="M185.71,811.06s0,.01,0,.02h0c0,.12-.02.25-.03.37,0,.04-.02.07-.03.11-.62,2.46-1.29,4.92-1.95,7.37-.74,2.7-1.44,5.39-2.18,8.09-1.41,5.22-2.88,10.42-4.37,15.62-3.08,10.71-6.29,21.37-9.48,32.04-6.34,21.11-12.59,42.23-18.91,63.34-6.8,22.7-13.69,45.38-20.61,68.04-3.57,11.67-7.15,23.33-10.74,35-3.45,11.2-6.93,22.39-10.37,33.6-3.44,11.18-6.88,22.36-10.29,33.55-3.36,11.02-6.7,22.04-10.03,33.06-6.65,21.94-13.32,43.88-19.98,65.82-6.55,21.55-13.04,43.13-19.82,64.61-3.24,10.27-6.48,20.54-9.77,30.79-1.58,4.93-3.11,9.88-4.65,14.82-1.54,4.96-3.09,9.93-4.63,14.89-2.66,8.61-5.35,17.22-8.04,25.83-.72,2.32-1.44,4.64-2.16,6.97-.7,2.26-1.37,4.53-2.07,6.79-.23.73-.42,1.47-.62,2.21-.09.34-.31.61-.6.79.33,6.92,2.29,13.79,3.94,20.49,1.2,5.09,2.32,10.21,3.58,15.08,1.46,5.19,2.91,10.11,4.91,14.51-.6-3.23-1.29-6.36-2.13-9.54-1.79-6.8-4.04-13.5-5.47-20.39-1.16-6.04-2.71-12.05-2.91-18.21,0-.8.84-1.12,1.41-.86.49-1.97,1.07-3.93,1.64-5.88,1.56-5.34,3.15-10.67,4.73-16,2.98-10.07,5.98-20.12,9-30.18,3.13-10.4,6.27-20.81,9.39-31.21,3.17-10.55,6.37-21.1,9.54-31.65,3.24-10.77,6.49-21.52,9.74-32.28,1.65-5.45,3.32-10.9,4.97-16.35,1.57-5.2,3.14-10.39,4.73-15.59,6.42-20.95,12.82-41.92,19.3-62.86,3.11-10.07,6.25-20.12,9.34-30.19,3.25-10.56,6.48-21.12,9.71-31.7,3.29-10.76,6.54-21.53,9.84-32.29,3.26-10.65,6.53-21.3,9.79-31.95,3.14-10.26,6.29-20.51,9.37-30.79,3.21-10.68,6.43-21.36,9.58-32.05,6.04-20.47,12.11-40.94,18.43-61.32,1.54-4.95,3.08-9.9,4.61-14.85,1.38-4.44,2.7-8.89,4.01-13.36,1.43-4.9,2.88-9.8,4.32-14.7,1.25-4.26,2.52-8.5,3.84-12.74.65-2.09,1.32-4.18,1.98-6.26.74-2.34,1.44-4.69,2.18-7.02.52-1.64,1.04-3.29,1.57-4.93.26-.82.53-1.63.8-2.44.12-.37.25-.75.39-1.11.09-.25.21-.49.3-.73.02-.09.05-.17.09-.25-3.24-1.1-6.46-1.85-9.52-3.28-5.79-2.87-11.28-6.34-16.62-9.97l.12.09c-4.73-3.07-8.97-7.38-10.16-13.07-.53-6.09-.8-12.9,2.04-18.45-.35-.4-.69-.8-1.04-1.21-.25,1.19-.53,2.38-.84,3.56-1.84,9.23-5.54,17.53,2.48,25,6.35,6.02,13.96,10.52,21.8,14.3.36.18.71.35,1.07.52.04.05.08.1.14.14.06.04.12.09.18.13.07.06.13.12.21.18.09.08.19.15.29.21.12.08.25.16.38.23.13.08.27.15.4.22h0c.12.07.24.15.35.23.16.12.3.25.45.38.14.13.28.27.42.4.13.13.28.25.41.38.12.11.23.21.34.32.09.1.17.2.25.29.08.1.16.2.24.29.12.16.24.31.36.47.12.18.23.36.33.55t0,0c.12.23.24.47.34.71.03.07.05.14.07.21h0c.03.09.06.17.09.25,0,.02.01.03.02.05.05.14.09.28.13.43,0,.02.01.03.01.05,0,.02.01.03.02.05h0s0,.07.01.11c0,.04,0,.07.01.11h0c.01.26.02.52,0,.78,0,.13-.02.26,0,.39,0,.12.02.24.03.36h0s0,0,0,.01c0,.02,0,.04,0,.06s0,.04,0,.05h0c0,.12,0,.25,0,.38ZM211.44,881.31c.17.26.21.59.09.9-.08.2-.15.41-.22.61-.09.27-.16.56-.25.84-.11.35-.23.7-.34,1.02,0,.02-.01.03-.02.05h0c-.23.68-.45,1.35-.64,1.92-.29.85-.54,1.71-.79,2.57-.29.95-.55,1.91-.84,2.86-.57,1.88-1.13,3.76-1.7,5.64-.79,2.59-1.59,5.18-2.39,7.77-.82,2.65-1.61,5.3-2.42,7.96-.89,2.94-1.8,5.88-2.74,8.8-1.07,3.33-2.13,6.67-3.2,10.01-1.07,3.35-2.13,6.7-3.19,10.06-1.14,3.62-2.25,7.24-3.37,10.88-3.01,9.8-6.04,19.61-9.09,29.4-1.61,5.2-3.23,10.39-4.86,15.59-1.47,4.68-2.95,9.34-4.41,14.02-1.45,4.66-2.89,9.31-4.35,13.96-1.55,4.97-3.12,9.92-4.69,14.89-3.35,10.61-6.71,21.21-10.05,31.82-6.31,20.04-12.5,40.11-18.7,60.18-6.46,20.97-13.16,41.86-19.72,62.8-3.18,10.13-6.37,20.26-9.53,30.41-3.27,10.48-6.52,20.97-9.75,31.46-6.21,20.1-12.48,40.18-18.74,60.27-2.94,9.45-5.85,18.91-8.8,28.36-2.81,9.02-5.68,18.04-8.57,27.03-1.44,4.48-2.88,8.96-4.31,13.45-1.56,4.91-3.12,9.83-4.71,14.74-3.32,10.26-6.56,20.55-9.82,30.82-.49,1.55-.98,3.11-1.48,4.65-.12.36-.24.73-.36,1.09,1.21.8,2.53,1.54,3.96,2.19.09-.48.23-.96.36-1.43.6-2.29,1.29-4.56,1.96-6.83,1.45-4.92,2.86-9.86,4.32-14.77,1.34-4.51,2.7-9.02,4.05-13.52,1.33-4.44,2.7-8.88,3.99-13.34,1.16-3.99,2.28-7.98,3.47-11.96,1.38-4.59,2.77-9.18,4.18-13.77,3.08-10.08,6.11-20.18,9.19-30.25,6.38-20.88,12.93-41.71,19.44-62.55,3.35-10.74,6.75-21.47,10.11-32.21,3.33-10.64,6.67-21.28,10.01-31.92,6.77-21.6,13.48-43.21,20.25-64.81,6.61-21.1,13.23-42.2,19.88-63.29,3.4-10.78,6.83-21.55,10.21-32.33,3.27-10.43,6.51-20.86,9.78-31.28,3.3-10.5,6.66-20.97,9.97-31.46,3.15-10,6.28-20.01,9.45-30.01,1.48-4.66,2.94-9.31,4.41-13.97,1.48-4.7,2.94-9.42,4.42-14.13,2.41-7.67,4.79-15.34,7.3-22.97,1.26-3.84,2.51-7.68,3.73-11.54.59-1.88,1.18-3.77,1.78-5.65.16-.51.33-1.03.49-1.55.04-.35.19-.73.36-1.1.3-.91.6-1.82.93-2.71,0-.02.01-.04.02-.05.11-.36.18-.74.29-1.11.11-.41.24-.8.36-1.2.03-.09.06-.17.11-.24.38-1.43.74-2.86,1.11-4.3-1.27,2.64-2.17,5.42-3.18,8.16-.56.91-1,4.61-2.48,3.81-.2-.13-.35-.35-.35-.62.23-2.59.93-5.09,1.29-7.63-.39,1.19-.8,2.36-1.2,3.54ZM34.6,1442.13c-.53-.35-1.07-.72-1.61-1.11-3.09-2.09-5.52-4.81-7.45-7.88-1.16-.75-2.13-1.39-2.67-1.69-7.69-4.93-11.78-13.63-14.56-22.02-2.04-5.79-3.83-11.66-5.23-17.64-3.04-12.61-4.99-19.44-.11-32.08.38-1.34,1.75-1.57,2.67-1.05,1.15-4.27,2.28-8.54,3.42-12.8,1.26-4.71,2.46-9.43,3.7-14.14,1.29-4.96,2.63-9.9,4-14.84,1.23-4.49,2.5-8.98,3.76-13.47,1.12-3.99,2.23-7.98,3.38-11.96,2.72-9.44,5.5-18.86,8.29-28.28,3.09-10.39,6.21-20.76,9.36-31.13,3.21-10.62,6.5-21.21,9.74-31.83,3.17-10.38,6.32-20.77,9.45-31.16,3.24-10.75,6.45-21.5,9.7-32.24,3.22-10.64,6.45-21.27,9.61-31.92,3.14-10.59,6.24-21.18,9.35-31.77,3.06-10.45,6.13-20.9,9.21-31.34,3.09-10.5,6.11-21.02,9.16-31.54,3.02-10.41,6.13-20.79,9.18-31.19,1.53-5.23,3.03-10.48,4.58-15.7,1.46-4.91,2.95-9.8,4.43-14.7,2.92-9.69,5.89-19.37,8.79-29.07,3.04-10.19,6.04-20.39,9.09-30.57,3.1-10.38,6.26-20.73,9.36-31.11,1.58-5.3,3.17-10.6,4.76-15.9.77-2.54,1.52-5.09,2.26-7.65.45-1.55.88-3.12,1.38-4.66.15-.47.31-.94.5-1.4.13-.32.27-.62.4-.88.1-.21.19-.43.2-.45.39-1.14.7-2.3,1.02-3.46.16-.55.31-1.1.46-1.66.13-.47.24-1.01.48-1.46-.05,0-.1-.02-.14-.02-4.96-1.23-9.38-4-13.63-6.75-5.8-3.89-10.89-9.52-14.34-15.58-1.78-4.19-2.27-8.89-2.41-13.41,0-6.96,1.35-13.94-.12-20.79-2.7-17.49-13.55-31.83-20.79-47.58-7.83-16.16-14.57-32.91-18.66-50.43-5.41-23.35-7.53-47.5-4.95-71.37,1.63-16.34,6.3-32.16,10.95-47.85,5.73-15.18,13.23-29.73,22.05-43.35,5.77-9.28,12.54-17.88,19.15-26.56,6.32-8.77,14.25-16.16,22.01-23.63,3.8-3.9,8.47-6.72,12.91-9.82,3.87-2.8,7.91-5.32,11.95-7.86.86-.67,1.72-1.33,2.59-1.98,1.98-1.47,3.98-2.92,5.99-4.35,2.07-1.48,4.21-2.88,6.33-4.28,1.77-1.17,3.57-2.31,5.39-3.41,4.07-2.45,8.16-4.86,12.38-7.06,2.27-1.19,4.55-2.35,6.85-3.5,2.21-1.1,4.48-2.11,6.73-3.12,1.95-.89,3.93-1.72,5.91-2.53,2.2-.91,4.41-1.81,6.65-2.63,2.43-.89,4.87-1.76,7.32-2.61,2.23-.77,4.5-1.45,6.76-2.14,2.09-.64,4.2-1.23,6.3-1.79,2.31-.62,4.63-1.24,6.96-1.77,4.08-.93,8.16-1.8,12.28-2.54.26-1.2,1.42-2.16,2.72-1.95.2-.02.4-.04.41-.05,2.12-.3,4.24-.63,6.37-.91,3.01-.4,6.03-.75,9.06-1.04,6.37-.62,12.77-.95,18.88-1.03,8.52-.11,17.04.14,25.52.97,4.58.45,9.14,1.03,13.68,1.76-2.18,1.81-4.31,3.68-6.39,5.62-4.21,3.91-7.95,8.32-11.65,12.71-6.71,7.96-12.93,16.3-19.41,24.44-1.11,1.4-2.24,2.8-3.34,4.21-.84.27-1.67.54-2.5.83-3.39,1.22-6.7,2.61-9.86,4.17-.03.02-.05.03-.11.05-.14.07-.27.14-.36.18-2.77,1.41-5.46,2.99-8.05,4.72-.01,0-.02.01-.03.02-.29.2-.58.39-.87.59-2.33,1.61-4.54,3.39-6.4,5.04-1.87,1.7-3.62,3.49-5.3,5.37-1.46,1.72-2.86,3.5-3.93,5.1-.21.33-.43.66-.65.98-1.02,1.56-1.92,3.2-2.77,4.85-.93,1.93-1.74,3.9-2.46,5.92-.57,1.8-1.08,3.61-1.45,5.42-.01.05-.02.11-.03.16h0c-.01.06-.02.11-.03.16,0,.01,0,.03,0,.04-.16.95-.33,1.9-.45,2.86-.12.96-.21,1.93-.28,2.9-.07,1.87-.07,3.73.02,5.61.08,1.02.17,2.04.3,3.05.14,1.07.33,2.12.53,3.19.23,1.08.48,2.16.78,3.22.32,1.11.66,2.21,1.04,3.31.61,1.66,1.29,3.29,2.03,4.89-1.29,2.28-2.5,4.6-3.65,6.96-2.25,4.63-4.45,9.3-6.43,14.05-2.23,5.33-4.15,10.75-5.67,16.32-1.38,5.06-2.59,10.17-3.79,15.28-1.27,5.44-2.41,10.9-3.08,16.45-.65,5.37-1.08,10.74-1.3,16.14-.24,5.79-.32,11.58-.03,17.36.29,5.7,1.04,11.37,1.84,17.02-.06-.41-.12-.82-.18-1.23,1.12,8,1.93,16.06,3.28,24.03.69,3.96,1.47,7.9,2.35,11.83,2.38,10.68,6.05,21.06,10.61,31,4.52,9.86,9.21,19.62,14.91,28.86,6.01,9.72,12.35,19.32,19.55,28.21,3.39,4.19,6.79,8.39,10.46,12.34,3.65,3.95,7.46,7.71,11.43,11.34.03.03.06.05.09.08.04.04.08.07.12.11.08.07.15.14.23.21,4.14,3.72,8.48,7.13,12.87,10.54,3.75,2.92,7.46,5.9,11.16,8.89.11.09.23.18.34.28.04.03.07.06.11.09,4.86,3.94,9.67,7.95,14.7,11.67,4.72,3.5,9.59,6.78,14.46,10.06,2,1.39,3.93,2.84,5.8,4.4,1.41,1.28,2.74,2.62,4.04,4.02,2.43,2.82,4.64,5.83,6.77,8.89-4.1,4.04-8.02,8.27-11.8,12.57-7.99,10.87-15.18,22.52-20.6,34.9-3.27,8.18-5.3,16.77-8.41,25.01-2.23,6.13-4.73,12.18-7.12,18.18,0,0,0,.02-.01.03-2.11,5.28-3.79,10.71-5.47,16.14-1.62,5.44-4.06,11.02-8.97,14.25-1.65,1.05-4.05,2.12-6.04,1.6-.07.22-.17.44-.31.64-2.78,4.44-6.62,8.26-11.77,9.71-7.51,1.55-11.64,6.5-14.66,13.2-7.58,15.76-9.98,33.43-16.93,49.42-7.52,17.06-27.9,10.56-35.2,37.96-1.65,6.15-2.23,12.55-1.79,18.91.52,8.14,4.32,18.06-5.91,21.7-4.87,1.93-10,3.93-13.14,8.38-5.58,7.54-9.82,16.39-13.69,24.86-4.64,10.8-5.79,18.86,4.49,26.6,1.51,1.17,2.48,3.3,1.29,5.04-1.87,2.2-5.11,2.54-7.62,3.72-5.83,2.18-11.69,4.26-17.48,6.52-1.74.68-3.81,1.97-4.76,3.38-3.12,4.73-5.18,10.73-7.38,15.76-4.42,11.09-9.27,24.4-2.82,35.65,9.09,14.69,17.97,32.06,12.92,49.71-2.04,8.45-7.01,16.5-5.6,25.46.86,5.71,5.04,12.63-.54,17.18-13.65,11.73-21.46,13.03-29.73,30.97-2.7,5.72-5.55,11.69-5.68,18.13-.23,7.13,6.48,13.86,3.14,20.86-1.88,3-5.37,4.4-8.27,6.23-10.71,5.86-22.48,9.25-33.74,13.84-11.03,4.82-21.76,10.32-33.08,14.46-13.75,4.34-23.77,12.4-35.37,12.4-5.02,0-10.32-1.5-16.36-5.47Z"/>
  </g>
</svg>